<svg version="1.1" xmlns="http://www.w3.org/2000/svg" xmlns:xlink="http://www.w3.org/1999/xlink" x="0px" y="0px"
	 viewBox="0 0 981.8 194.9" style="enable-background:new 0 0 981.8 194.9;" xml:space="preserve">
<style type="text/css">
	.st0{fill:#5C3617;}
	.st1{fill:#71665C;}
	.st2{fill:#A79685;}
	.st3{fill:none;}
	.st4{font-family:'Montserrat-Regular';}
	.st5{font-size:28px;}
	.st6{font-family:'Montserrat-Bold';}
	.st8{opacity:0;}
	:hover {
                transition: all ease 0.5s;
            }
    .st9:hover {
               opacity:100;
               }
</style>
<g id="Layer_1" class="st9">
	<title>aracnofobia_porcentaje</title>
	<path class="st0" d="M59.4,62.8c0.6,17.1,0.8,34.1,1.8,51.2c1.3,23.3,3.3,46.6,4.9,69.9c0.4,6.3-2.6,10.5-7.6,11s-8.7-3-9.4-9.4
		c-2.4-20.9-4.7-41.8-7.1-62.6c-0.1-1.3-0.7-2.6-1.6-3.5c-0.4,1-0.7,2.1-0.9,3.2c-2.3,20.2-4.6,40.4-6.8,60.6
		c-0.9,8.2-3.9,12.1-9.4,11.7c-5.7-0.3-8.2-4.8-7.8-13.2c2.1-38.3,4.2-76.6,6.2-114.9c0.1-1.4-0.1-2.8-0.6-4.2
		c-0.5,1-0.9,2.1-1.3,3.2c-2.8,9.8-5.5,19.6-8.2,29.3c-1.3,4.5-4.4,6.9-7.8,5.8c-4.4-1.4-4.2-4.8-3.3-8.6
		c3.2-13.6,5.9-27.4,9.5-40.9c1.4-5.1,4-9.8,7.5-13.6c2.5-2.7,7.2-4,11.1-4.4c7.3-0.7,14.7-0.2,22-0.2c10.3,0,17.4,4.5,20,14.5
		C74.8,63.3,78,79,81.6,94.6c0.7,3.2-0.6,5.8-3.9,6.5s-6-0.7-7.1-4c-2-6.7-3.9-13.4-5.8-20.2c-1.3-4.7-2.7-9.4-4.1-14.2L59.4,62.8z"
		/>
	<path class="st0" d="M40.8,31.4c-8.7-0.1-15.6-7.2-15.5-15.8S32.4-0.1,41.1,0s15.6,7.2,15.5,15.8c0,0.1,0,0.1,0,0.2
		C56.4,24.6,49.3,31.4,40.8,31.4z"/>
	<path class="st0" d="M159.4,62.8c0.6,17.1,0.8,34.1,1.8,51.2c1.4,23.3,3.3,46.6,4.9,69.9c0.4,6.3-2.6,10.5-7.6,11s-8.7-3-9.4-9.4
		c-2.4-20.9-4.7-41.8-7.1-62.6c-0.1-1.3-0.7-2.6-1.6-3.5c-0.4,1-0.7,2.1-0.9,3.2c-2.3,20.2-4.6,40.4-6.8,60.6
		c-0.9,8.2-3.9,12.1-9.4,11.7c-5.7-0.3-8.2-4.8-7.8-13.2c2.1-38.3,4.2-76.6,6.2-114.9c0.1-1.4-0.1-2.8-0.6-4.2
		c-0.5,1-0.9,2.1-1.3,3.2c-2.8,9.8-5.5,19.6-8.2,29.3c-1.3,4.5-4.4,6.9-7.8,5.8c-4.4-1.4-4.2-4.8-3.3-8.6
		c3.2-13.6,5.9-27.4,9.5-40.9c1.4-5.1,4-9.8,7.6-13.6c2.5-2.7,7.2-4,11.1-4.4c7.3-0.7,14.7-0.2,22-0.2c10.3,0,17.4,4.5,20,14.5
		c4.1,15.5,7.4,31.1,10.9,46.7c0.7,3.2-0.6,5.8-3.9,6.5s-6-0.7-7-4c-2-6.7-3.9-13.4-5.8-20.2c-1.3-4.7-2.7-9.4-4.1-14.2L159.4,62.8z
		"/>
	<path class="st0" d="M140.8,31.4c-8.7-0.1-15.6-7.2-15.5-15.8c0.1-8.7,7.2-15.6,15.8-15.5c8.7,0.1,15.6,7.2,15.5,15.8
		c0,0.1,0,0.1,0,0.2C156.4,24.6,149.3,31.4,140.8,31.4z"/>
	<path class="st0" d="M259.4,62.8c0.6,17.1,0.8,34.1,1.8,51.2c1.4,23.3,3.3,46.6,4.9,69.9c0.4,6.3-2.6,10.5-7.6,11
		c-5,0.5-8.7-3-9.4-9.4c-2.4-20.9-4.7-41.8-7.1-62.6c-0.1-1.3-0.7-2.6-1.6-3.5c-0.4,1-0.7,2.1-0.9,3.2c-2.3,20.2-4.6,40.4-6.8,60.6
		c-0.9,8.2-3.9,12.1-9.4,11.7c-5.7-0.3-8.2-4.8-7.8-13.2c2.1-38.3,4.2-76.6,6.2-114.9c0.1-1.4-0.1-2.8-0.6-4.2
		c-0.5,1-0.9,2.1-1.3,3.2c-2.8,9.8-5.5,19.6-8.2,29.3c-1.3,4.5-4.4,6.9-7.8,5.8c-4.4-1.4-4.2-4.8-3.3-8.6
		c3.2-13.6,5.9-27.4,9.5-40.9c1.4-5.1,4-9.8,7.6-13.6c2.5-2.7,7.2-4,11.1-4.4c7.3-0.7,14.7-0.2,22-0.2c10.3,0,17.4,4.5,20,14.5
		c4.1,15.5,7.4,31.1,10.9,46.7c0.7,3.2-0.6,5.8-3.9,6.5s-6-0.7-7-4c-2-6.7-3.9-13.4-5.8-20.2c-1.3-4.7-2.7-9.4-4.1-14.2L259.4,62.8z
		"/>
	<path class="st0" d="M240.8,31.4c-8.7-0.1-15.6-7.2-15.5-15.8c0.1-8.7,7.2-15.6,15.8-15.5s15.6,7.2,15.5,15.8c0,0.1,0,0.1,0,0.2
		C256.4,24.6,249.3,31.4,240.8,31.4z"/>
</g>
<g id="Capa_2">
	<path class="st1" d="M359.4,62.8c0.6,17.1,0.8,34.1,1.8,51.2c1.4,23.3,3.3,46.6,4.9,69.9c0.4,6.3-2.6,10.5-7.6,11s-8.7-3-9.4-9.4
		c-2.4-20.9-4.7-41.8-7.1-62.6c-0.1-1.3-0.7-2.6-1.6-3.5c-0.4,1-0.7,2.1-0.9,3.2c-2.3,20.2-4.6,40.4-6.8,60.6
		c-0.9,8.2-3.9,12.1-9.4,11.7c-5.7-0.3-8.2-4.8-7.8-13.2c2.1-38.3,4.2-76.6,6.2-114.9c0.1-1.4-0.1-2.8-0.6-4.2
		c-0.5,1-0.9,2.1-1.3,3.2c-2.8,9.8-5.5,19.6-8.2,29.3c-1.3,4.5-4.4,6.9-7.8,5.8c-4.4-1.4-4.2-4.8-3.3-8.6
		c3.2-13.6,5.9-27.4,9.5-40.9c1.4-5.1,4-9.8,7.5-13.6c2.5-2.7,7.2-4,11.1-4.4c7.3-0.7,14.7-0.2,22-0.2c10.3,0,17.4,4.5,20,14.5
		c4.1,15.5,7.4,31.1,10.9,46.7c0.7,3.2-0.6,5.8-3.9,6.5s-6-0.7-7-4c-2-6.7-3.9-13.4-5.8-20.2c-1.3-4.7-2.7-9.4-4.1-14.2L359.4,62.8z
		"/>
	<path class="st1" d="M340.8,31.4c-8.7-0.1-15.6-7.2-15.5-15.8S332.4-0.1,341.1,0c8.7,0.1,15.6,7.2,15.5,15.8c0,0.1,0,0.1,0,0.2
		C356.4,24.6,349.3,31.4,340.8,31.4z"/>
	<path class="st1" d="M459.4,62.8c0.6,17.1,0.8,34.1,1.8,51.2c1.4,23.3,3.3,46.6,4.9,69.9c0.4,6.3-2.6,10.5-7.6,11s-8.7-3-9.4-9.4
		c-2.4-20.9-4.7-41.8-7.1-62.6c-0.1-1.3-0.7-2.6-1.6-3.5c-0.4,1-0.7,2.1-0.9,3.2c-2.3,20.2-4.6,40.4-6.8,60.6
		c-0.9,8.2-3.9,12.1-9.4,11.7c-5.7-0.3-8.2-4.8-7.8-13.2c2.1-38.3,4.2-76.6,6.2-114.9c0.1-1.4-0.1-2.8-0.6-4.2
		c-0.5,1-0.9,2.1-1.3,3.2c-2.8,9.8-5.5,19.6-8.2,29.3c-1.3,4.5-4.4,6.9-7.8,5.8c-4.4-1.4-4.2-4.8-3.3-8.6
		c3.2-13.6,5.9-27.4,9.5-40.9c1.4-5.1,4-9.8,7.5-13.6c2.5-2.7,7.2-4,11.1-4.4c7.3-0.7,14.7-0.2,22-0.2c10.3,0,17.4,4.5,20,14.5
		c4.1,15.5,7.4,31.1,10.9,46.7c0.7,3.2-0.6,5.8-3.9,6.5s-6-0.7-7-4c-2-6.7-3.9-13.4-5.8-20.2c-1.3-4.7-2.7-9.4-4.1-14.2L459.4,62.8z
		"/>
	<path class="st1" d="M440.8,31.4c-8.7-0.1-15.6-7.2-15.5-15.8S432.4-0.1,441.1,0c8.7,0.1,15.6,7.2,15.5,15.8c0,0.1,0,0.1,0,0.2
		C456.4,24.6,449.3,31.4,440.8,31.4z"/>
	<path class="st1" d="M559.4,62.8c0.6,17.1,0.8,34.1,1.8,51.2c1.3,23.3,3.3,46.6,4.9,69.9c0.4,6.3-2.6,10.5-7.6,11s-8.7-3-9.4-9.4
		c-2.4-20.9-4.7-41.8-7.1-62.6c-0.1-1.3-0.7-2.6-1.6-3.5c-0.4,1-0.7,2.1-0.9,3.2c-2.3,20.2-4.6,40.4-6.8,60.6
		c-0.9,8.2-3.9,12.1-9.4,11.7c-5.7-0.3-8.2-4.8-7.8-13.2c2.1-38.3,4.2-76.6,6.2-114.9c0.1-1.4-0.1-2.8-0.6-4.2
		c-0.5,1-0.9,2.1-1.3,3.2c-2.8,9.8-5.5,19.6-8.2,29.3c-1.3,4.5-4.4,6.9-7.8,5.8c-4.4-1.4-4.2-4.8-3.3-8.6
		c3.2-13.6,5.9-27.4,9.5-40.9c1.4-5.1,4-9.8,7.5-13.6c2.5-2.7,7.2-4,11.1-4.4c7.3-0.7,14.7-0.2,22-0.2c10.3,0,17.4,4.5,20,14.5
		c4.1,15.5,7.4,31.1,10.9,46.7c0.7,3.2-0.6,5.8-3.9,6.5s-6-0.7-7-4c-2-6.7-3.9-13.4-5.8-20.2c-1.3-4.7-2.7-9.4-4.1-14.2L559.4,62.8z
		"/>
	<path class="st1" d="M540.8,31.4c-8.7-0.1-15.6-7.2-15.5-15.8c0.1-8.7,7.2-15.6,15.8-15.5c8.7,0.1,15.6,7.2,15.5,15.8
		c0,0.1,0,0.1,0,0.2C556.4,24.6,549.3,31.4,540.8,31.4z"/>
	<path class="st1" d="M659.4,62.8c0.6,17.1,0.8,34.1,1.8,51.2c1.3,23.3,3.3,46.6,4.9,69.9c0.4,6.3-2.6,10.5-7.6,11s-8.7-3-9.4-9.4
		c-2.4-20.9-4.7-41.8-7.1-62.6c-0.1-1.3-0.7-2.6-1.6-3.5c-0.4,1-0.7,2.1-0.9,3.2c-2.3,20.2-4.6,40.4-6.8,60.6
		c-0.9,8.2-3.9,12.1-9.4,11.7c-5.7-0.3-8.2-4.8-7.8-13.2c2.1-38.3,4.2-76.6,6.2-114.9c0.1-1.4-0.1-2.8-0.6-4.2
		c-0.5,1-0.9,2.1-1.3,3.2c-2.8,9.8-5.5,19.6-8.2,29.3c-1.3,4.5-4.4,6.9-7.8,5.8c-4.4-1.4-4.2-4.8-3.3-8.6
		c3.2-13.6,5.9-27.4,9.5-40.9c1.4-5.1,4-9.8,7.5-13.6c2.5-2.7,7.2-4,11.1-4.4c7.3-0.7,14.7-0.2,22-0.2c10.3,0,17.4,4.5,20,14.5
		c4.1,15.5,7.4,31.1,10.9,46.7c0.7,3.2-0.6,5.8-3.9,6.5s-6-0.7-7-4c-2-6.7-3.9-13.4-5.8-20.2c-1.3-4.7-2.7-9.4-4.1-14.2L659.4,62.8z
		"/>
	<path class="st1" d="M640.8,31.4c-8.7-0.1-15.6-7.2-15.5-15.8c0.1-8.7,7.2-15.6,15.8-15.5c8.7,0.1,15.6,7.2,15.5,15.8
		c0,0.1,0,0.1,0,0.2C656.4,24.6,649.3,31.4,640.8,31.4z"/>
	<path class="st1" d="M759.4,62.8c0.6,17.1,0.8,34.1,1.8,51.2c1.3,23.3,3.3,46.6,4.9,69.9c0.4,6.3-2.6,10.5-7.6,11s-8.7-3-9.4-9.4
		c-2.4-20.9-4.7-41.8-7.1-62.6c-0.1-1.3-0.7-2.6-1.6-3.5c-0.4,1-0.7,2.1-0.9,3.2c-2.3,20.2-4.6,40.4-6.8,60.6
		c-0.9,8.2-3.9,12.1-9.4,11.7c-5.7-0.3-8.2-4.8-7.8-13.2c2.1-38.3,4.2-76.6,6.2-114.9c0.1-1.4-0.1-2.8-0.6-4.2
		c-0.5,1-0.9,2.1-1.3,3.2c-2.8,9.8-5.5,19.6-8.2,29.3c-1.3,4.5-4.4,6.9-7.8,5.8c-4.4-1.4-4.2-4.8-3.3-8.6
		c3.2-13.6,5.9-27.4,9.5-40.9c1.4-5.1,4-9.8,7.5-13.6c2.5-2.7,7.2-4,11.1-4.4c7.3-0.7,14.7-0.2,22-0.2c10.3,0,17.4,4.5,20,14.5
		c4.1,15.5,7.4,31.1,10.9,46.7c0.7,3.2-0.6,5.8-3.9,6.5s-6-0.7-7-4c-2-6.7-3.9-13.4-5.8-20.2c-1.3-4.7-2.7-9.4-4.1-14.2L759.4,62.8z
		"/>
	<path class="st1" d="M740.8,31.4c-8.7-0.1-15.6-7.2-15.5-15.8c0.1-8.7,7.2-15.6,15.8-15.5c8.7,0.1,15.6,7.2,15.5,15.8
		c0,0.1,0,0.1,0,0.2C756.4,24.6,749.3,31.4,740.8,31.4z"/>
	<path class="st1" d="M859.4,62.8c0.6,17.1,0.8,34.1,1.8,51.2c1.3,23.3,3.3,46.6,4.9,69.9c0.4,6.3-2.6,10.5-7.6,11s-8.7-3-9.4-9.4
		c-2.4-20.9-4.7-41.8-7.1-62.6c-0.1-1.3-0.7-2.6-1.6-3.5c-0.4,1-0.7,2.1-0.9,3.2c-2.3,20.2-4.6,40.4-6.8,60.6
		c-0.9,8.2-3.9,12.1-9.4,11.7c-5.7-0.3-8.2-4.8-7.8-13.2c2.1-38.3,4.2-76.6,6.2-114.9c0.1-1.4-0.1-2.8-0.6-4.2
		c-0.5,1-0.9,2.1-1.3,3.2c-2.8,9.8-5.5,19.6-8.2,29.3c-1.3,4.5-4.4,6.9-7.8,5.8c-4.4-1.4-4.2-4.8-3.3-8.6
		c3.2-13.6,5.9-27.4,9.5-40.9c1.4-5.1,4-9.8,7.5-13.6c2.5-2.7,7.2-4,11.1-4.4c7.3-0.7,14.7-0.2,22-0.2c10.3,0,17.4,4.5,20,14.5
		c4.1,15.5,7.4,31.1,10.9,46.7c0.7,3.2-0.6,5.8-3.9,6.5s-6-0.7-7-4c-2-6.7-3.9-13.4-5.8-20.2c-1.3-4.7-2.7-9.4-4.1-14.2L859.4,62.8z
		"/>
	<path class="st1" d="M840.8,31.4c-8.7-0.1-15.6-7.2-15.5-15.8c0.1-8.7,7.2-15.6,15.8-15.5c8.7,0.1,15.6,7.2,15.5,15.8
		c0,0.1,0,0.1,0,0.2C856.4,24.6,849.3,31.4,840.8,31.4z"/>
	<path class="st1" d="M959.4,62.8c0.6,17.1,0.8,34.1,1.8,51.2c1.3,23.3,3.3,46.6,4.9,69.9c0.4,6.3-2.6,10.5-7.6,11s-8.7-3-9.4-9.4
		c-2.4-20.9-4.7-41.8-7.1-62.6c-0.1-1.3-0.7-2.6-1.6-3.5c-0.4,1-0.7,2.1-0.9,3.2c-2.3,20.2-4.6,40.4-6.8,60.6
		c-0.9,8.2-3.9,12.1-9.4,11.7c-5.7-0.3-8.2-4.8-7.8-13.2c2.1-38.3,4.2-76.6,6.2-114.9c0.1-1.4-0.1-2.8-0.6-4.2
		c-0.5,1-0.9,2.1-1.3,3.2c-2.8,9.8-5.5,19.6-8.2,29.3c-1.3,4.5-4.4,6.9-7.8,5.8c-4.4-1.4-4.2-4.8-3.3-8.6
		c3.2-13.6,5.9-27.4,9.5-40.9c1.4-5.1,4-9.8,7.5-13.6c2.5-2.7,7.2-4,11.1-4.4c7.3-0.7,14.7-0.2,22-0.2c10.3,0,17.4,4.5,20,14.5
		c4.1,15.5,7.4,31.1,10.9,46.7c0.7,3.2-0.6,5.8-3.9,6.5s-6-0.7-7-4c-2-6.7-3.9-13.4-5.8-20.2c-1.3-4.7-2.7-9.4-4.1-14.2L959.4,62.8z
		"/>
	<path class="st1" d="M940.8,31.4c-8.7-0.1-15.6-7.2-15.5-15.8c0.1-8.7,7.2-15.6,15.8-15.5c8.7,0.1,15.6,7.2,15.5,15.8
		c0,0.1,0,0.1,0,0.2C956.4,24.6,949.3,31.4,940.8,31.4z"/>
</g>
<g id="Capa_3" class="st8 st9">
	<rect x="293.4" y="0" class="st2" width="688.4" height="194.9"/>
	<rect x="322.3" y="65.6" class="st3" width="616.8" height="63.6"/>
	<text transform="matrix(1 0 0 1 322.3214 86.4242)"><tspan x="0" y="0" class="st4 st5">El</tspan><tspan x="26.3" y="0" class="st6 st5"> 33%</tspan><tspan x="91.9" y="0" class="st4 st5"> de la población tiene un temor </tspan><tspan x="0" y="33.6" class="st4 st5">intenso e irracional hacia las arañas.</tspan></text>
</g>
</svg>
