<svg id="Layer_1" data-name="Layer 1" xmlns="http://www.w3.org/2000/svg" width="981.78" height="194.89" viewBox="0 0 981.78 194.89"><title>aracnofobia presentacioÌn</title><path d="M68.53,108.36c.59,17.06.84,34.14,1.83,51.18,1.35,23.3,3.28,46.57,4.91,69.86.44,6.29-2.56,10.51-7.59,11s-8.71-3-9.44-9.4c-2.39-20.87-4.7-41.75-7.06-62.62a5.74,5.74,0,0,0-1.57-3.52,20.68,20.68,0,0,0-.88,3.21c-2.31,20.2-4.63,40.41-6.84,60.62-.9,8.2-3.86,12.06-9.39,11.74-5.69-.33-8.22-4.82-7.76-13.21q3.15-57.43,6.19-114.86a9.17,9.17,0,0,0-.61-4.17A29.9,29.9,0,0,0,29,111.41c-2.77,9.78-5.47,19.57-8.24,29.35-1.28,4.52-4.42,6.93-7.81,5.82-4.44-1.45-4.2-4.79-3.31-8.57,3.21-13.63,5.88-27.39,9.53-40.89a33.11,33.11,0,0,1,7.55-13.64c2.5-2.65,7.2-4,11.06-4.39,7.28-.67,14.66-.19,22-.19,10.32,0,17.38,4.54,20,14.49,4.08,15.46,7.38,31.12,10.93,46.72.73,3.23-.61,5.77-3.91,6.46s-6-.66-7.05-4c-2-6.69-3.86-13.45-5.78-20.18q-2-7.08-4.08-14.16Z" transform="translate(-9.11 -45.56)" fill="#5c3617"/><path d="M49.86,76.91A15.68,15.68,0,1,1,65.7,61.55,15.73,15.73,0,0,1,49.86,76.91Z" transform="translate(-9.11 -45.56)" fill="#5c3617"/><path d="M168.53,108.36c.59,17.06.84,34.14,1.83,51.18,1.35,23.3,3.28,46.57,4.91,69.86.44,6.29-2.56,10.51-7.59,11s-8.71-3-9.44-9.4c-2.39-20.87-4.7-41.75-7.06-62.62a5.74,5.74,0,0,0-1.57-3.52,20.68,20.68,0,0,0-.88,3.21c-2.31,20.2-4.63,40.41-6.84,60.62-.9,8.2-3.86,12.06-9.39,11.74-5.69-.33-8.22-4.82-7.76-13.21q3.15-57.43,6.19-114.86a9.17,9.17,0,0,0-.61-4.17,29.9,29.9,0,0,0-1.33,3.22c-2.77,9.78-5.47,19.57-8.24,29.35-1.28,4.52-4.42,6.93-7.81,5.82-4.44-1.45-4.2-4.79-3.31-8.57,3.21-13.63,5.88-27.39,9.53-40.89a33.11,33.11,0,0,1,7.55-13.64c2.5-2.65,7.2-4,11.06-4.39,7.28-.67,14.66-.19,22-.19,10.32,0,17.38,4.54,20,14.49,4.08,15.46,7.38,31.12,10.93,46.72.73,3.23-.61,5.77-3.91,6.46s-6-.66-7-4c-2-6.69-3.86-13.45-5.78-20.18q-2-7.08-4.08-14.16Z" transform="translate(-9.11 -45.56)" fill="#5c3617"/><path d="M149.86,76.91A15.68,15.68,0,1,1,165.7,61.55,15.73,15.73,0,0,1,149.86,76.91Z" transform="translate(-9.11 -45.56)" fill="#5c3617"/><path d="M268.53,108.36c.59,17.06.84,34.14,1.83,51.18,1.35,23.3,3.28,46.57,4.91,69.86.44,6.29-2.56,10.51-7.59,11s-8.71-3-9.44-9.4c-2.39-20.87-4.7-41.75-7.06-62.62a5.74,5.74,0,0,0-1.57-3.52,20.68,20.68,0,0,0-.88,3.21c-2.31,20.2-4.63,40.41-6.84,60.62-.9,8.2-3.86,12.06-9.39,11.74-5.69-.33-8.22-4.82-7.76-13.21q3.15-57.43,6.19-114.86a9.17,9.17,0,0,0-.61-4.17,29.9,29.9,0,0,0-1.33,3.22c-2.77,9.78-5.47,19.57-8.24,29.35-1.28,4.52-4.42,6.93-7.81,5.82-4.44-1.45-4.2-4.79-3.31-8.57,3.21-13.63,5.88-27.39,9.53-40.89a33.11,33.11,0,0,1,7.55-13.64c2.5-2.65,7.2-4,11.06-4.39,7.28-.67,14.66-.19,22-.19,10.32,0,17.38,4.54,20,14.49,4.08,15.46,7.38,31.12,10.93,46.72.73,3.23-.61,5.77-3.91,6.46s-6-.66-7.05-4c-2-6.69-3.86-13.45-5.78-20.18q-2-7.08-4.08-14.16Z" transform="translate(-9.11 -45.56)" fill="#5c3617"/><path d="M249.86,76.91A15.68,15.68,0,1,1,265.7,61.55,15.73,15.73,0,0,1,249.86,76.91Z" transform="translate(-9.11 -45.56)" fill="#5c3617"/><path d="M368.53,108.36c.59,17.06.84,34.14,1.83,51.18,1.35,23.3,3.28,46.57,4.91,69.86.44,6.29-2.56,10.51-7.59,11s-8.71-3-9.44-9.4c-2.39-20.87-4.7-41.75-7.06-62.62a5.74,5.74,0,0,0-1.57-3.52,20.68,20.68,0,0,0-.88,3.21c-2.31,20.2-4.63,40.41-6.84,60.62-.9,8.2-3.86,12.06-9.39,11.74-5.69-.33-8.22-4.82-7.76-13.21q3.15-57.43,6.19-114.86a9.17,9.17,0,0,0-.61-4.17,29.9,29.9,0,0,0-1.33,3.22c-2.77,9.78-5.47,19.57-8.24,29.35-1.28,4.52-4.42,6.93-7.81,5.82-4.44-1.45-4.2-4.79-3.31-8.57,3.21-13.63,5.88-27.39,9.53-40.89a33.11,33.11,0,0,1,7.55-13.64c2.5-2.65,7.2-4,11.06-4.39,7.28-.67,14.66-.19,22-.19,10.32,0,17.38,4.54,20,14.49,4.08,15.46,7.38,31.12,10.93,46.72.73,3.23-.61,5.77-3.91,6.46s-6-.66-7.05-4c-2-6.69-3.86-13.45-5.78-20.18q-2-7.08-4.08-14.16Z" transform="translate(-9.11 -45.56)" fill="#5c3617"/><path d="M349.86,76.91A15.68,15.68,0,1,1,365.7,61.55,15.73,15.73,0,0,1,349.86,76.91Z" transform="translate(-9.11 -45.56)" fill="#5c3617"/><path d="M468.53,108.36c.59,17.06.84,34.14,1.83,51.18,1.35,23.3,3.28,46.57,4.91,69.86.44,6.29-2.56,10.51-7.59,11s-8.71-3-9.44-9.4c-2.39-20.87-4.7-41.75-7.06-62.62a5.74,5.74,0,0,0-1.57-3.52,20.68,20.68,0,0,0-.88,3.21c-2.31,20.2-4.63,40.41-6.84,60.62-.9,8.2-3.86,12.06-9.39,11.74-5.69-.33-8.22-4.82-7.76-13.21q3.15-57.43,6.19-114.86a9.17,9.17,0,0,0-.61-4.17,29.9,29.9,0,0,0-1.33,3.22c-2.77,9.78-5.47,19.57-8.24,29.35-1.28,4.52-4.42,6.93-7.81,5.82-4.44-1.45-4.2-4.79-3.31-8.57,3.21-13.63,5.88-27.39,9.53-40.89a33.11,33.11,0,0,1,7.55-13.64c2.5-2.65,7.2-4,11.06-4.39,7.28-.67,14.66-.19,22-.19,10.32,0,17.38,4.54,20,14.49,4.08,15.46,7.38,31.12,10.93,46.72.73,3.23-.61,5.77-3.91,6.46s-6-.66-7.05-4c-2-6.69-3.86-13.45-5.78-20.18q-2-7.08-4.08-14.16Z" transform="translate(-9.11 -45.56)" fill="#5c3617"/><path d="M449.86,76.91A15.68,15.68,0,1,1,465.7,61.55,15.73,15.73,0,0,1,449.86,76.91Z" transform="translate(-9.11 -45.56)" fill="#5c3617"/><path d="M568.53,108.36c.59,17.06.84,34.14,1.83,51.18,1.35,23.3,3.28,46.57,4.91,69.86.44,6.29-2.56,10.51-7.59,11s-8.71-3-9.44-9.4c-2.39-20.87-4.7-41.75-7.06-62.62a5.74,5.74,0,0,0-1.57-3.52,20.68,20.68,0,0,0-.88,3.21c-2.31,20.2-4.63,40.41-6.84,60.62-.9,8.2-3.86,12.06-9.39,11.74-5.69-.33-8.22-4.82-7.76-13.21q3.15-57.43,6.19-114.86a9.17,9.17,0,0,0-.61-4.17,29.9,29.9,0,0,0-1.33,3.22c-2.77,9.78-5.47,19.57-8.24,29.35-1.28,4.52-4.42,6.93-7.81,5.82-4.44-1.45-4.2-4.79-3.31-8.57,3.21-13.63,5.88-27.39,9.53-40.89a33.11,33.11,0,0,1,7.55-13.64c2.5-2.65,7.2-4,11.06-4.39,7.28-.67,14.66-.19,22-.19,10.32,0,17.38,4.54,20,14.49,4.08,15.46,7.38,31.12,10.93,46.72.73,3.23-.61,5.77-3.91,6.46s-6-.66-7-4c-2-6.69-3.86-13.45-5.78-20.18q-2-7.08-4.08-14.16Z" transform="translate(-9.11 -45.56)" fill="#5c3617"/><path d="M549.86,76.91A15.68,15.68,0,1,1,565.7,61.55,15.73,15.73,0,0,1,549.86,76.91Z" transform="translate(-9.11 -45.56)" fill="#5c3617"/><path d="M668.53,108.36c.59,17.06.84,34.14,1.83,51.18,1.35,23.3,3.28,46.57,4.91,69.86.44,6.29-2.56,10.51-7.59,11s-8.71-3-9.44-9.4c-2.39-20.87-4.7-41.75-7.06-62.62a5.74,5.74,0,0,0-1.57-3.52,20.68,20.68,0,0,0-.88,3.21c-2.31,20.2-4.63,40.41-6.84,60.62-.9,8.2-3.86,12.06-9.39,11.74-5.69-.33-8.22-4.82-7.76-13.21q3.15-57.43,6.19-114.86a9.17,9.17,0,0,0-.61-4.17,29.9,29.9,0,0,0-1.33,3.22c-2.77,9.78-5.47,19.57-8.24,29.35-1.28,4.52-4.42,6.93-7.81,5.82-4.44-1.45-4.2-4.79-3.31-8.57,3.21-13.63,5.88-27.39,9.53-40.89a33.11,33.11,0,0,1,7.55-13.64c2.5-2.65,7.2-4,11.06-4.39,7.28-.67,14.66-.19,22-.19,10.32,0,17.38,4.54,20,14.49,4.08,15.46,7.38,31.12,10.93,46.72.73,3.23-.61,5.77-3.91,6.46s-6-.66-7-4c-2-6.69-3.86-13.45-5.78-20.18q-2-7.08-4.08-14.16Z" transform="translate(-9.11 -45.56)" fill="#5c3617"/><path d="M649.86,76.91A15.68,15.68,0,1,1,665.7,61.55,15.73,15.73,0,0,1,649.86,76.91Z" transform="translate(-9.11 -45.56)" fill="#5c3617"/><path d="M786.79,146.57c-3.31.71-6-.66-7-4-2-6.69-3.86-13.45-5.78-20.18q-2-7.08-4.08-14.16l-1.35.18c.59,17.06.84,34.14,1.83,51.18,1.35,23.3,3.28,46.57,4.91,69.86.44,6.29-2.56,10.51-7.59,11s-8.71-3-9.44-9.4c-2.39-20.87-4.7-41.75-7.06-62.62a5.67,5.67,0,0,0-1.18-3V78.76c3.25,0,6.51.14,9.76.14,10.32,0,17.38,4.54,20,14.49,4.08,15.46,7.38,31.12,10.93,46.72C791.43,143.34,790.09,145.88,786.79,146.57Z" transform="translate(-9.11 -45.56)" fill="#71665c"/><path d="M765.7,61.55A15.8,15.8,0,0,1,750,76.91V45.56A15.72,15.72,0,0,1,765.7,61.55Z" transform="translate(-9.11 -45.56)" fill="#71665c"/><path d="M868.53,108.36c.59,17.06.84,34.14,1.83,51.18,1.35,23.3,3.28,46.57,4.91,69.86.44,6.29-2.56,10.51-7.59,11s-8.71-3-9.44-9.4c-2.39-20.87-4.7-41.75-7.06-62.62a5.74,5.74,0,0,0-1.57-3.52,20.68,20.68,0,0,0-.88,3.21c-2.31,20.2-4.63,40.41-6.84,60.62-.9,8.2-3.86,12.06-9.39,11.74-5.69-.33-8.22-4.82-7.76-13.21q3.15-57.43,6.19-114.86a9.17,9.17,0,0,0-.61-4.17,29.9,29.9,0,0,0-1.33,3.22c-2.77,9.78-5.47,19.57-8.24,29.35-1.28,4.52-4.42,6.93-7.81,5.82-4.44-1.45-4.2-4.79-3.31-8.57,3.21-13.63,5.88-27.39,9.53-40.89a33.11,33.11,0,0,1,7.55-13.64c2.5-2.65,7.2-4,11.06-4.39,7.28-.67,14.66-.19,22-.19,10.32,0,17.38,4.54,20,14.49,4.08,15.46,7.38,31.12,10.93,46.72.73,3.23-.61,5.77-3.91,6.46s-6-.66-7-4c-2-6.69-3.86-13.45-5.78-20.18q-2-7.08-4.08-14.16Z" transform="translate(-9.11 -45.56)" fill="#71665c"/><path d="M849.86,76.91A15.68,15.68,0,1,1,865.7,61.55,15.73,15.73,0,0,1,849.86,76.91Z" transform="translate(-9.11 -45.56)" fill="#71665c"/><path d="M968.53,108.36c.59,17.06.84,34.14,1.83,51.18,1.35,23.3,3.28,46.57,4.91,69.86.44,6.29-2.56,10.51-7.59,11s-8.71-3-9.44-9.4c-2.39-20.87-4.7-41.75-7.06-62.62a5.74,5.74,0,0,0-1.57-3.52,20.68,20.68,0,0,0-.88,3.21c-2.31,20.2-4.63,40.41-6.84,60.62-.9,8.2-3.86,12.06-9.39,11.74-5.69-.33-8.22-4.82-7.76-13.21q3.15-57.43,6.19-114.86a9.17,9.17,0,0,0-.61-4.17,29.9,29.9,0,0,0-1.33,3.22c-2.77,9.78-5.47,19.57-8.24,29.35-1.28,4.52-4.42,6.93-7.81,5.82-4.44-1.45-4.2-4.79-3.31-8.57,3.21-13.63,5.88-27.39,9.53-40.89a33.11,33.11,0,0,1,7.55-13.64c2.5-2.65,7.2-4,11.06-4.39,7.28-.67,14.66-.19,22-.19,10.32,0,17.38,4.54,20,14.49,4.08,15.46,7.38,31.12,10.93,46.72.73,3.23-.61,5.77-3.91,6.46s-6-.66-7-4c-2-6.69-3.86-13.45-5.78-20.18q-2-7.08-4.08-14.16Z" transform="translate(-9.11 -45.56)" fill="#71665c"/><path d="M949.86,76.91A15.68,15.68,0,1,1,965.7,61.55,15.73,15.73,0,0,1,949.86,76.91Z" transform="translate(-9.11 -45.56)" fill="#71665c"/><path d="M750,78.76v86.57c-.11-.15-.25-.31-.39-.47a20.68,20.68,0,0,0-.88,3.21c-2.31,20.2-4.63,40.41-6.84,60.62-.9,8.2-3.86,12.06-9.39,11.74-5.69-.33-8.22-4.82-7.76-13.21q3.15-57.43,6.19-114.86a9.17,9.17,0,0,0-.61-4.17,29.9,29.9,0,0,0-1.33,3.22c-2.77,9.78-5.47,19.57-8.24,29.35-1.28,4.52-4.42,6.93-7.81,5.82-4.44-1.45-4.2-4.79-3.31-8.57,3.21-13.63,5.88-27.39,9.53-40.89a33.11,33.11,0,0,1,7.55-13.64c2.5-2.65,7.2-4,11.06-4.39A115.86,115.86,0,0,1,750,78.76Z" transform="translate(-9.11 -45.56)" fill="#5c3617"/><path d="M750,45.56V76.91h-.14A15.68,15.68,0,1,1,750,45.56Z" transform="translate(-9.11 -45.56)" fill="#5c3617"/></svg>