<svg version="1.1" id="Capa_1" xmlns="http://www.w3.org/2000/svg" xmlns:xlink="http://www.w3.org/1999/xlink" x="0px" y="0px"
	 viewBox="0 0 475 387" style="enable-background:new 0 0 475 387;" xml:space="preserve">
<style type="text/css">
	.st0{fill:none;stroke:#000000;stroke-width:0.75;stroke-miterlimit:10;}
	.st1{fill:none;}
	.st2{font-family:'Montserrat-Medium';}
	.st3{font-size:16px;}
	.st4{fill:none;stroke:#FFCC45;stroke-width:0.75;stroke-miterlimit:10;}
</style>
<image style="overflow:visible;" width="475" height="387" xlink:href="cara.png" >
</image>
<g>
	<g>
		<line class="st0" x1="56.5" y1="285.1" x2="38" y2="215.8"/>
		<g>
			<path d="M59.2,284.2c0.4,1.5-0.5,3.1-2,3.5s-3.1-0.5-3.5-2c-0.4-1.5,0.5-3.1,2-3.5S58.8,282.7,59.2,284.2z"/>
		</g>
		<g>
			<path d="M40.8,215.2c-0.4-1.5-1.9-2.4-3.5-2s-2.4,1.9-2,3.5c0.4,1.5,1.9,2.4,3.5,2S41.2,216.7,40.8,215.2z"/>
		</g>
	</g>
</g>
<rect x="6.4" y="192.5" class="st1" width="87.3" height="13.6"/>
<text transform="matrix(1 0 0 1 6.4255 204.3722)" class="st2 st3">Pedipalpo</text>
<g>
	<g>
		<line class="st0" x1="205.2" y1="308.7" x2="205.2" y2="234.2"/>
		<g>
			<path d="M208.1,308.6c0,1.6-1.3,2.8-2.8,2.8s-2.8-1.3-2.8-2.8s1.3-2.8,2.8-2.8S208.1,307,208.1,308.6z"/>
		</g>
		<g>
			<path d="M208.1,234.4c0-1.6-1.3-2.8-2.8-2.8s-2.8,1.3-2.8,2.8c0,1.6,1.3,2.8,2.8,2.8S208.1,235.9,208.1,234.4z"/>
		</g>
	</g>
</g>
<rect x="164.4" y="319" class="st1" width="81" height="13.6"/>
<text transform="matrix(1 0 0 1 164.425 330.8661)" class="st2 st3">Quelicero</text>
<g>
	<g>
		<line class="st0" x1="213.5" y1="60.7" x2="161.1" y2="38.8"/>
		<g>
			<path d="M214.5,58c1.4,0.6,2.1,2.3,1.5,3.7c-0.6,1.4-2.3,2.1-3.7,1.5c-1.4-0.6-2.1-2.3-1.5-3.7S213,57.4,214.5,58z"/>
		</g>
		<g>
			<path d="M162.3,36.2c-1.4-0.6-3.1,0.1-3.7,1.5c-0.6,1.4,0.1,3.1,1.5,3.7c1.4,0.6,3.1-0.1,3.7-1.5
				C164.4,38.5,163.7,36.8,162.3,36.2z"/>
		</g>
	</g>
</g>
<rect x="118.2" y="20.3" class="st1" width="84.5" height="13.6"/>
<text transform="matrix(1 0 0 1 118.2455 32.1949)" class="st2 st3">Prosoma</text>
<circle class="st4" cx="245.5" cy="91.7" r="25"/>
<g>
	<g>
		<line class="st0" x1="348.7" y1="56.1" x2="270.4" y2="90.1"/>
		<g>
			<ellipse transform="matrix(0.9358 -0.3527 0.3527 0.9358 2.5886 126.5383)" cx="348.6" cy="56.2" rx="2.8" ry="2.8"/>
		</g>
	</g>
</g>
<rect x="304.8" y="33.9" class="st1" width="99.9" height="13.6"/>
<text transform="matrix(1 0 0 1 304.8418 45.8147)" class="st2 st3">Área ocular</text>
</svg>
