<?xml version="1.0" encoding="utf-8"?>
<!-- Generator: Adobe Illustrator 22.1.0, SVG Export Plug-In . SVG Version: 6.00 Build 0)  -->
<svg version="1.1" xmlns="http://www.w3.org/2000/svg" xmlns:xlink="http://www.w3.org/1999/xlink" x="0px" y="0px"
	 viewBox="0 0 400 800" style="enable-background:new 0 0 400 800;" xml:space="preserve">
<style type="text/css">
	.st0{display:none;fill:none;stroke:#FF0000;}
	.st1{fill:none;}
	.st2{fill:#1D1D1B;}
	.st3{font-family:'Montserrat-Bold';}
	.st4{font-size:14px;}
	.st5{opacity:0.5;}
	.st6{fill:#FFFDFC;}
	.st7{font-family:'ArialMT';}
	.st8{font-size:10.1075px;}
	.st9{clip-path:url(#SVGID_3_);}
	.st10{display:none;clip-path:url(#SVGID_4_);fill:none;}
	.st11{opacity:0;}
	.st12{clip-path:url(#SVGID_8_);}
	.st13{fill:#EEEEEE;}
	.st14{fill:none;stroke:#EEEEEE;stroke-width:0.7113;stroke-linecap:square;}
	.st15{fill:#FFFFFF;}
	.st16{font-size:11.0248px;}
	.st17{font-size:7.9096px;}
	.st18{clip-path:url(#SVGID_12_);}
	.st19{opacity:0.7;}
	.st20{clip-path:url(#SVGID_16_);}
	.st21{fill:#403427;}
	.st22{clip-path:url(#SVGID_18_);}
	.st23{fill:#FFFFFF;fill-opacity:0.7;}
	.st24{font-size:12.2497px;}
</style>
<g id="Capa_2">
</g>
<g id="Capa_1">
	<rect x="-310.5" y="123.5" class="st0" width="1020" height="597"/>
	<g id="stack-labels">
	</g>
	<rect x="35.4" y="154" class="st1" width="368.2" height="42.7"/>
	<text transform="matrix(1 0 0 1 35.4097 164.3877)"><tspan x="0" y="0" class="st2 st3 st4">Volumen exportaciones Araña Pollito</tspan><tspan x="0" y="16.8" class="st2 st3 st4">(desde 2012)</tspan></text>
	<rect x="43.5" y="581.6" class="st1" width="273.5" height="59.4"/>
	<text transform="matrix(1 0 0 1 43.459 588.8477)" class="st5"><tspan x="0" y="0" class="st6 st7 st8">Fuente: ODEPA (2021) Oficina de estudios y políticas </tspan><tspan x="0" y="12.1" class="st6 st7 st8">agrarias: Estadísticas de exportación Araña pollito </tspan><tspan x="0" y="24.3" class="st6 st7 st8">(Migalomorfas, suborden Araneae) Código SACH 01069020. </tspan><tspan x="0" y="36.4" class="st6 st7 st8">Período anual desde 1998 hasta 2021.</tspan></text>
	<g>
		<defs>
			<polygon id="SVGID_1_" points="22.2,244.2 22.8,244.2 22.2,244.8 			"/>
		</defs>
		<defs>
			<polygon id="SVGID_2_" points="21,242.9 20.3,242.9 21,242.3 			"/>
		</defs>
		<clipPath id="SVGID_3_">
			<use xlink:href="#SVGID_1_"  style="overflow:visible;"/>
		</clipPath>
		<clipPath id="SVGID_4_" class="st9">
			<use xlink:href="#SVGID_2_"  style="overflow:visible;"/>
		</clipPath>
		<path class="st10" d="M21,242.3"/>
	</g>
	<g>
		<rect x="42.1" y="280.4" class="st1" width="340" height="236.6"/>
	</g>
	<g class="st11">
		<rect x="42.1" y="280.4" width="340" height="236.6"/>
	</g>
	<g>
		<defs>
			<rect id="SVGID_5_" x="42.1" y="280.4" width="340" height="236.6"/>
		</defs>
		<clipPath id="SVGID_6_">
			<use xlink:href="#SVGID_5_"  style="overflow:visible;"/>
		</clipPath>
	</g>
	<g>
		<defs>
			<rect id="SVGID_7_" x="41.8" y="280" width="340.7" height="237.5"/>
		</defs>
		<clipPath id="SVGID_8_">
			<use xlink:href="#SVGID_7_"  style="overflow:visible;"/>
		</clipPath>
		<g class="st12">
			<g>
				<g>
					<rect x="42.1" y="516.8" class="st13" width="340" height="0.4"/>
				</g>
				<g>
					<rect x="42.1" y="497.1" class="st13" width="340" height="0.4"/>
				</g>
				<g>
					<rect x="42.1" y="477.4" class="st13" width="340" height="0.4"/>
				</g>
				<g>
					<rect x="42.1" y="457.7" class="st13" width="340" height="0.4"/>
				</g>
				<g>
					<rect x="42.1" y="437.9" class="st13" width="340" height="0.4"/>
				</g>
				<g>
					<rect x="42.1" y="418.2" class="st13" width="340" height="0.4"/>
				</g>
				<g>
					<rect x="42.1" y="398.5" class="st13" width="340" height="0.4"/>
				</g>
				<g>
					<rect x="42.1" y="378.8" class="st13" width="340" height="0.4"/>
				</g>
				<g>
					<rect x="42.1" y="359.1" class="st13" width="340" height="0.4"/>
				</g>
				<g>
					<rect x="42.1" y="339.3" class="st13" width="340" height="0.4"/>
				</g>
				<g>
					<rect x="42.1" y="319.6" class="st13" width="340" height="0.4"/>
				</g>
				<g>
					<rect x="42.1" y="299.9" class="st13" width="340" height="0.4"/>
				</g>
				<g>
					<rect x="42.1" y="280.2" class="st13" width="340" height="0.4"/>
				</g>
			</g>
		</g>
	</g>
	<g>
		<line class="st14" x1="42.1" y1="517" x2="382.1" y2="517"/>
	</g>
	<g>
		<rect x="381.9" y="517" class="st13" width="0.3" height="3"/>
	</g>
	<text transform="matrix(0.7071 -0.7071 0.7071 0.7071 375.3781 550.4688)" class="st15 st7 st16">2016</text>
	<g>
		<rect x="297" y="517" class="st13" width="0.3" height="3"/>
	</g>
	<text transform="matrix(0.7071 -0.7071 0.7071 0.7071 292.2841 550.4684)" class="st15 st7 st16">2015</text>
	<g>
		<rect x="212" y="517" class="st13" width="0.3" height="3"/>
	</g>
	<text transform="matrix(0.7071 -0.7071 0.7071 0.7071 208.1902 550.468)" class="st15 st7 st16">2014</text>
	<g>
		<rect x="127.1" y="517" class="st13" width="0.3" height="3"/>
	</g>
	<text transform="matrix(0.7071 -0.7071 0.7071 0.7071 121.0976 550.469)" class="st15 st7 st16">2013</text>
	<g>
		<rect x="41.9" y="517" class="st13" width="0.3" height="3"/>
	</g>
	<text transform="matrix(0.7071 -0.7071 0.7071 0.7071 39.5902 550.4691)" class="st15 st7 st16">2012</text>
	<g>
		<rect x="41.9" y="280.2" class="st13" width="0.3" height="237.1"/>
	</g>
	<g>
		<rect x="39.7" y="516.8" class="st13" width="2.4" height="0.4"/>
	</g>
	<text transform="matrix(1 0 0 1 29.6592 518.0781)" class="st15 st7 st17">0</text>
	<g>
		<rect x="39.7" y="280.2" class="st13" width="2.4" height="0.4"/>
	</g>
	<text transform="matrix(1 0 0 1 10.8071 283.4233)" class="st15 st7 st17">60.000</text>
	<g>
		<rect x="39.7" y="319.6" class="st13" width="2.4" height="0.4"/>
	</g>
	<text transform="matrix(1 0 0 1 10.8071 323.1992)" class="st15 st7 st17">50.000</text>
	<g>
		<rect x="39.7" y="359.1" class="st13" width="2.4" height="0.4"/>
	</g>
	<text transform="matrix(1 0 0 1 10.8071 362.9751)" class="st15 st7 st17">40.000</text>
	<g>
		<rect x="39.7" y="398.5" class="st13" width="2.4" height="0.4"/>
	</g>
	<text transform="matrix(1 0 0 1 10.8071 402.7495)" class="st15 st7 st17">30.000</text>
	<g>
		<rect x="39.7" y="437.9" class="st13" width="2.4" height="0.4"/>
	</g>
	<text transform="matrix(1 0 0 1 10.8071 442.5264)" class="st15 st7 st17">20.000</text>
	<g>
		<rect x="39.7" y="477.4" class="st13" width="2.4" height="0.4"/>
	</g>
	<text transform="matrix(1 0 0 1 10.8071 482.3018)" class="st15 st7 st17">10.000</text>
	<g>
		<rect x="39.7" y="497.1" class="st13" width="2.4" height="0.4"/>
	</g>
	<text transform="matrix(1 0 0 1 13.8403 502.1904)" class="st15 st7 st17">5.000</text>
	<g>
		<rect x="39.7" y="299.9" class="st13" width="2.4" height="0.4"/>
	</g>
	<text transform="matrix(1 0 0 1 10.8071 303.3105)" class="st15 st7 st17">55.000</text>
	<g>
		<rect x="39.7" y="339.3" class="st13" width="2.4" height="0.4"/>
	</g>
	<text transform="matrix(1 0 0 1 10.8071 343.0864)" class="st15 st7 st17">45.000</text>
	<g>
		<rect x="39.7" y="378.8" class="st13" width="2.4" height="0.4"/>
	</g>
	<text transform="matrix(1 0 0 1 10.8071 382.8618)" class="st15 st7 st17">35.000</text>
	<g>
		<path class="st15" d="M382.2,518.4H41.9V280.2h340.3V518.4z M42.3,518h339.6V280.6H42.3V518z"/>
	</g>
	<g>
		<rect x="39.7" y="418.2" class="st13" width="2.4" height="0.4"/>
	</g>
	<text transform="matrix(1 0 0 1 10.8071 422.6387)" class="st15 st7 st17">25.000</text>
	<g>
		<rect x="39.7" y="457.7" class="st13" width="2.4" height="0.4"/>
	</g>
	<text transform="matrix(1 0 0 1 10.8071 462.415)" class="st15 st7 st17">15.000</text>
	<g>
		<defs>
			<rect id="SVGID_9_" x="42.1" y="280.4" width="340" height="236.6"/>
		</defs>
		<clipPath id="SVGID_10_">
			<use xlink:href="#SVGID_9_"  style="overflow:visible;"/>
		</clipPath>
	</g>
	<g transform="translate(0, 0)">
		<g>
			<defs>
				<rect id="SVGID_11_" x="30.6" y="273" width="355.1" height="259.4"/>
			</defs>
			<clipPath id="SVGID_12_">
				<use xlink:href="#SVGID_11_"  style="overflow:visible;"/>
			</clipPath>
			<g class="st18">
				<polygon class="st13" points="42.1,277.5 42.1,277.5 42.1,277.5 				"/>
			</g>
		</g>
		<g>
			<defs>
				<rect id="SVGID_13_" x="30.6" y="273" width="355.1" height="259.4"/>
			</defs>
			<clipPath id="SVGID_14_">
				<use xlink:href="#SVGID_13_"  style="overflow:visible;"/>
			</clipPath>
		</g>
	</g>
	<g class="st19">
		<path class="st15" d="M42.1,517c28.4,0,56.8,0,85.2,0c28.3,0,56.6,0,84.9,0s56.6,0,84.9,0c28.3,0,56.6,0,84.9,0v-71.7
			c-28.3-1.1-56.6-2.2-84.9-6.5c-28.3-4.3-56.6-146.8-84.9-146.8s-56.6,126.7-84.9,126.7c-28.4,0-56.8-6.2-85.2-12.4V517z"/>
	</g>
	<g id="data-points">
		<g>
			<defs>
				<rect id="SVGID_15_" x="30.6" y="273" width="355.1" height="259.4"/>
			</defs>
			<clipPath id="SVGID_16_">
				<use xlink:href="#SVGID_15_"  style="overflow:visible;"/>
			</clipPath>
			<g transform="translate(0,0)" class="st20">
				<g id="point-0-0">
					<path class="st21" d="M40.9,406.2c0-0.8,0.5-1.5,1.2-1.5s1.2,0.7,1.2,1.5c0,0.8-0.5,1.5-1.2,1.5S40.9,407.1,40.9,406.2z"/>
				</g>
				<g id="point-0-1">
					<path class="st21" d="M126.1,418.7c0-0.8,0.5-1.5,1.2-1.5s1.2,0.7,1.2,1.5c0,0.8-0.5,1.5-1.2,1.5S126.1,419.5,126.1,418.7z"/>
				</g>
				<g id="point-0-2">
					<path class="st21" d="M211,292c0-0.8,0.5-1.5,1.2-1.5s1.2,0.7,1.2,1.5c0,0.8-0.5,1.5-1.2,1.5S211,292.8,211,292z"/>
				</g>
				<g id="point-0-3">
					<path class="st21" d="M295.9,438.8c0-0.8,0.5-1.5,1.2-1.5c0.7,0,1.2,0.7,1.2,1.5l0,0c0,0.8-0.5,1.5-1.2,1.5
						C296.5,440.3,295.9,439.6,295.9,438.8z"/>
				</g>
				<g id="point-0-4">
					<path class="st21" d="M380.9,445.3c0-0.8,0.5-1.5,1.2-1.5c0.7,0,1.2,0.7,1.2,1.5c0,0.8-0.5,1.5-1.2,1.5
						C381.4,446.8,380.9,446.1,380.9,445.3z"/>
				</g>
			</g>
		</g>
	</g>
	<g id="data-point-labels">
		<g>
			<defs>
				<rect id="SVGID_17_" x="30.6" y="273" width="355.1" height="259.4"/>
			</defs>
			<clipPath id="SVGID_18_">
				<use xlink:href="#SVGID_17_"  style="overflow:visible;"/>
			</clipPath>
			<g transform="translate(0,0)" class="st22">
			</g>
		</g>
	</g>
	<rect x="42.1" y="231" class="st23" width="18.4" height="18.4"/>
	<rect x="70.9" y="235.1" class="st1" width="108.6" height="12.7"/>
	<text transform="matrix(1 0 0 1 70.9443 243.9043)" class="st15 st7 st24">Volumen Exportado</text>
	<g>
		<path class="st21" d="M382.1,445.7c-27.8-1.1-56.6-2.2-85-6.5c-14.1-2.2-28.3-38.5-42.1-73.6c-14.1-36-28.7-73.2-42.8-73.2
			c-14,0-28.3,32.1-42.2,63.1c-14,31.3-28.4,63.6-42.8,63.6c-28.4,0-57.3-6.3-85.2-12.4l0.1-0.8c27.9,6.1,56.7,12.4,85.1,12.4
			c14,0,28.3-32.1,42.2-63.1c14-31.3,28.4-63.6,42.8-63.6c14.6,0,29.3,37.5,43.4,73.7c13.7,34.9,27.8,71,41.5,73.1
			c28.3,4.3,57.1,5.4,84.9,6.5L382.1,445.7z"/>
	</g>
</g>
</svg>
