<svg version="1.1" id="Capa_1" xmlns="http://www.w3.org/2000/svg" xmlns:xlink="http://www.w3.org/1999/xlink" x="0px" y="0px"
	 viewBox="0 0 938 767.2" style="enable-background:new 0 0 938 767.2;" xml:space="preserve">
<style type="text/css">
	.st0{fill:#333333;}
	.st1{opacity:0.3;}
	.st2{fill:#FFFFFF;stroke:#A2004A;stroke-width:34;stroke-miterlimit:10;}
	.st3{fill:#FFFFFF;stroke:#FFF445;stroke-width:34;}
	.st4{fill:none;stroke:#B9DCFF;stroke-width:34;}
	.st5{fill:#595959;}
	.st6{font-family:'Montserrat-Medium';}
	.st7{font-size:15px;}
	.st8{fill:#262626;}
	.st9{font-family:'Montserrat-Bold';}
	.st10{font-size:16px;}
	.st11{enable-background:new    ;}
	.st12{fill:#EBEBEB;}
	.st13{font-size:17px;}
	.st14{fill:#3B3B3B;}
	.st15{font-size:22px;}
	.st16{fill:none;}
</style>
<g>
	<rect x="83.8" y="116.9" class="st0" width="5" height="34">
	<title>Viuda negra: 1</title>
	</rect>
	<rect x="83.8" y="155.9" class="st0" width="5" height="34">
	<title>Araña de rincón: 1</title>
	</rect>
	<rect x="83.8" y="194.9" class="st0" width="5" height="34">
	<title>Araña lobo: 1</title>
	</rect>
	<rect x="83.8" y="233.9" class="st0" width="5" height="34">
	<title>Falsa viuda negra: 1</title>
	</rect>
	<rect x="83.8" y="272.9" class="st0" width="5" height="34">
	<title>Araña sicario : 1</title>
	</rect>
	<rect x="83.8" y="311.9" class="st0" width="5" height="34">
	<title>Araña del ratón: 1</title>
	</rect>
	<rect x="83.8" y="350.9" class="st0" width="5" height="34">
	<title>Araña cangrejo: 1</title>
	</rect>
	<rect x="83.8" y="389.9" class="st0" width="5" height="34">
	<title>Arañon del monte: 1</title>
	</rect>
	<rect x="83.8" y="428.9" class="st0" width="5" height="34">
	<title>Araña del boldo: 1</title>
	</rect>
	<rect x="83.8" y="467.9" class="st0" width="5" height="34">
	<title>Argiope argentata: 1</title>
	</rect>
	<rect x="83.8" y="506.9" class="st0" width="5" height="34">
	<title>Euathlus sp. (Araña Pollito): 1</title>
	</rect>
	<rect x="83.8" y="545.9" class="st0" width="5" height="34">
	<title>Araña fantasma: 1</title>
	</rect>
	<rect x="83.8" y="584.9" class="st0" width="5" height="34">
	<title>Metepeira sp.: 1</title>
	</rect>
	<rect x="83.8" y="623.9" class="st0" width="5" height="34">
	<title>Platnickia sp.: 1</title>
	</rect>
	<rect x="83.8" y="662.9" class="st0" width="5" height="34">
	<title>Araña saltarina: 1</title>
	</rect>
	<rect x="863.8" y="146.9" class="st0" width="5" height="68">
	<title>Mortal y peligrosa: 2</title>
	</rect>
	<rect x="863.8" y="219.9" class="st0" width="5" height="136">
	<title>Tóxica con mordida dolorosa
: 4</title>
	</rect>
	<rect x="863.8" y="360.9" class="st0" width="5" height="306">
	<title>Sin riesgo: 9</title>
	</rect>
</g>
<g class="st1">
	<g>
		<path class="st2" d="M88.8,133.9c387.5,0,387.5,30,775,30"/>
		<title>Viuda negra → Mortal y peligrosa: 1</title>
	</g>
	<g>
		<path class="st2" d="M88.8,172.9c387.5,0,387.5,25,775,25"/>
		<title>Araña de rincón → Mortal y peligrosa: 1</title>
	</g>
	<g>
		<path class="st3" d="M88.8,211.9c387.5,0,387.5,25,775,25"/>
		<title>Araña lobo → Tóxica con mordida dolorosa
: 1</title>
	</g>
	<g>
		<path class="st3" d="M88.8,250.9c387.5,0,387.5,20,775,20"/>
		<title>Falsa viuda negra → Tóxica con mordida dolorosa
: 1</title>
	</g>
	<g>
		<path class="st3" d="M88.8,289.9c387.5,0,387.5,15,775,15"/>
		<title>Araña sicario  → Tóxica con mordida dolorosa
: 1</title>
	</g>
	<g>
		<path class="st3" d="M88.8,328.9c387.5,0,387.5,10,775,10"/>
		<title>Araña del ratón → Tóxica con mordida dolorosa
: 1</title>
	</g>
	<g>
		<path class="st4" d="M88.8,367.9c387.5,0,387.5,10,775,10"/>
		<title>Araña cangrejo → Sin riesgo: 1</title>
	</g>
	<g>
		<path class="st4" d="M88.8,406.9c387.5,0,387.5,5,775,5"/>
		<title>Arañon del monte → Sin riesgo: 1</title>
	</g>
	<g>
		<path class="st4" d="M88.8,445.9c387.5,0,387.5,0,775,0"/>
		<title>Araña del boldo → Sin riesgo: 1</title>
	</g>
	<g>
		<path class="st4" d="M88.8,484.9c387.5,0,387.5-5,775-5"/>
		<title>Argiope argentata → Sin riesgo: 1</title>
	</g>
	<g>
		<path class="st4" d="M88.8,523.9c387.5,0,387.5-10,775-10"/>
		<title>Euathlus sp. (Araña Pollito) → Sin riesgo: 1</title>
	</g>
	<g>
		<path class="st4" d="M88.8,562.9c387.5,0,387.5-15,775-15"/>
		<title>Araña fantasma → Sin riesgo: 1</title>
	</g>
	<g>
		<path class="st4" d="M88.8,601.9c387.5,0,387.5-20,775-20"/>
		<title>Metepeira sp. → Sin riesgo: 1</title>
	</g>
	<g>
		<path class="st4" d="M88.8,640.9c387.5,0,387.5-25,775-25"/>
		<title>Platnickia sp. → Sin riesgo: 1</title>
	</g>
	<g>
		<path class="st4" d="M88.8,679.9c387.5,0,387.5-30,775-30"/>
		<title>Araña saltarina → Sin riesgo: 1</title>
	</g>
</g>
<text transform="matrix(1 0 0 1 92.7704 139.4288)" class="st5 st6 st7">Viuda negra</text>
<text transform="matrix(1 0 0 1 92.7704 177.4288)" class="st5 st6 st7">Araña de rincón</text>
<text transform="matrix(1 0 0 1 92.7704 217.4288)" class="st5 st6 st7">Araña lobo</text>
<text transform="matrix(1 0 0 1 92.7704 255.4288)" class="st5 st6 st7">Falsa viuda negra</text>
<text transform="matrix(1 0 0 1 92.7704 294.4288)" class="st5 st6 st7">Araña sicario</text>
<text transform="matrix(1 0 0 1 92.7704 332.4288)" class="st5 st6 st7">Araña del ratón</text>
<text transform="matrix(1 0 0 1 92.7704 371.4288)" class="st5 st6 st7">Araña cangrejo</text>
<text transform="matrix(1 0 0 1 92.7704 411.4288)" class="st5 st6 st7">Arañon del monte</text>
<text transform="matrix(1 0 0 1 92.7704 450.4288)" class="st5 st6 st7">Araña del boldo</text>
<text transform="matrix(1 0 0 1 92.7704 488.4288)" class="st5 st6 st7">Argiope argentata</text>
<text transform="matrix(1 0 0 1 92.7704 528.4288)" class="st8 st9 st10">Euathlus sp. (Araña Pollito)</text>
<text transform="matrix(1 0 0 1 92.7704 568.4288)" class="st5 st6 st7">Araña fantasma</text>
<text transform="matrix(1 0 0 1 92.7704 606.4288)" class="st5 st6 st7">Metepeira sp.</text>
<text transform="matrix(1 0 0 1 92.7704 644.4288)" class="st5 st6 st7">Platnickia sp.</text>
<text transform="matrix(1 0 0 1 92.7704 682.4288)" class="st5 st6 st7">Araña saltarina</text>
<text transform="matrix(1 0 0 1 777.746 176.4289)" class="st11"><tspan x="0" y="0" class="st12 st9 st13">Mortal y</tspan><tspan x="-9.9" y="20.4" class="st12 st9 st13">peligrosa</tspan></text>
<g>
	<text transform="matrix(1 0 0 1 767.869 518.947)" class="st12 st9 st13">Sin riesgo</text>
</g>
<g>
	<text transform="matrix(1 0 0 1 69.2636 102.9478)" class="st14 st9 st15">Araña</text>
	<g>
		<text transform="matrix(1 0 0 1 801.5541 116.9478)" class="st14 st9 st15">Picadura</text>
	</g>
</g>
<g>
	<rect x="752.7" y="272" class="st16" width="97.7" height="66.9"/>
	<text transform="matrix(1 0 0 1 755.2721 284.6151)"><tspan x="0" y="0" class="st12 st9 st13">Tóxica con </tspan><tspan x="19.7" y="20.4" class="st12 st9 st13">mordida </tspan><tspan x="18" y="40.8" class="st12 st9 st13">dolorosa</tspan></text>
</g>
</svg>