<?xml version="1.0" encoding="utf-8"?>
<!-- Generator: Adobe Illustrator 22.1.0, SVG Export Plug-In . SVG Version: 6.00 Build 0)  -->
<svg version="1.1" xmlns="http://www.w3.org/2000/svg" xmlns:xlink="http://www.w3.org/1999/xlink" x="0px" y="0px"
	 viewBox="0 0 800 800" style="enable-background:new 0 0 800 800;" xml:space="preserve">
<style type="text/css">
	.st0{display:none;fill:none;stroke:#FF0000;}
	.st1{fill:none;}
	.st2{fill:#1D1D1B;}
	.st3{font-family:'Montserrat-Bold';}
	.st4{font-size:18.4944px;}
	.st5{opacity:0.5;}
	.st6{fill:#FFFDFC;}
	.st7{font-family:'ArialMT';}
	.st8{font-size:14px;}
	.st9{opacity:0.8;}
	.st10{clip-path:url(#SVGID_3_);}
	.st11{display:none;clip-path:url(#SVGID_4_);fill:none;}
	.st12{opacity:0;}
	.st13{clip-path:url(#SVGID_8_);}
	.st14{fill:#EEEEEE;}
	.st15{fill:none;stroke:#EEEEEE;stroke-width:0.7113;stroke-linecap:square;}
	.st16{fill:#FFFFFF;}
	.st17{font-size:12.8038px;}
	.st18{font-size:13px;}
	.st19{clip-path:url(#SVGID_12_);}
	.st20{opacity:0.7;}
	.st21{clip-path:url(#SVGID_16_);}
	.st22{fill:#403427;}
	.st23{clip-path:url(#SVGID_18_);}
	.st24{fill:#FFFFFF;fill-opacity:0.7;}
	.st25{font-size:14.2264px;}
</style>
<g id="Capa_2">
</g>
<g id="Capa_1">
	<rect x="-110.5" y="123.5" class="st0" width="1020" height="597"/>
	<g id="stack-labels">
	</g>
	<rect x="72.4" y="79" class="st1" width="368.2" height="42.7"/>
	<text transform="matrix(1 0 0 1 72.4097 92.7231)"><tspan x="0" y="0" class="st2 st3 st4">Volumen exportaciones Araña Pollito</tspan><tspan x="0" y="22.2" class="st2 st3 st4">(desde 2012)</tspan></text>
	<rect x="72.6" y="682.1" class="st1" width="703.4" height="52.3"/>
	<text transform="matrix(1 0 0 1 72.5747 692.1035)" class="st5"><tspan x="0" y="0" class="st6 st7 st8">Fuente: ODEPA (2021) Oficina de estudios y políticas agrarias: Estadísticas de exportación Araña pollito </tspan><tspan x="0" y="16.8" class="st6 st7 st8">(Migalomorfas, suborden Araneae) Código SACH 01069020. Período anual desde 1998 hasta 2021.</tspan></text>
	<g class="st9">
		<g>
			<defs>
				<polygon id="SVGID_1_" points="50.1,175.7 50.8,175.7 50.1,176.4 				"/>
			</defs>
			<defs>
				<polygon id="SVGID_2_" points="48.7,174.3 48,174.3 48.7,173.6 				"/>
			</defs>
			<clipPath id="SVGID_3_">
				<use xlink:href="#SVGID_1_"  style="overflow:visible;"/>
			</clipPath>
			<clipPath id="SVGID_4_" class="st10">
				<use xlink:href="#SVGID_2_"  style="overflow:visible;"/>
			</clipPath>
			<path class="st11" d="M48.7,173.6"/>
		</g>
		<g>
			<rect x="73.2" y="210" class="st1" width="702.4" height="392.2"/>
		</g>
		<g class="st12">
			<rect x="73.2" y="210" width="702.4" height="392.2"/>
		</g>
		<g>
			<defs>
				<rect id="SVGID_5_" x="73.2" y="210" width="702.4" height="392.2"/>
			</defs>
			<clipPath id="SVGID_6_">
				<use xlink:href="#SVGID_5_"  style="overflow:visible;"/>
			</clipPath>
		</g>
		<g>
			<defs>
				<rect id="SVGID_7_" x="72.5" y="209.3" width="703.8" height="393.7"/>
			</defs>
			<clipPath id="SVGID_8_">
				<use xlink:href="#SVGID_7_"  style="overflow:visible;"/>
			</clipPath>
			<g class="st13">
				<g>
					<g>
						<rect x="73.2" y="601.9" class="st14" width="702.4" height="0.7"/>
					</g>
					<g>
						<rect x="73.2" y="569.2" class="st14" width="702.4" height="0.7"/>
					</g>
					<g>
						<rect x="73.2" y="536.6" class="st14" width="702.4" height="0.7"/>
					</g>
					<g>
						<rect x="73.2" y="503.9" class="st14" width="702.4" height="0.7"/>
					</g>
					<g>
						<rect x="73.2" y="471.2" class="st14" width="702.4" height="0.7"/>
					</g>
					<g>
						<rect x="73.2" y="438.5" class="st14" width="702.4" height="0.7"/>
					</g>
					<g>
						<rect x="73.2" y="405.8" class="st14" width="702.4" height="0.7"/>
					</g>
					<g>
						<rect x="73.2" y="373.1" class="st14" width="702.4" height="0.7"/>
					</g>
					<g>
						<rect x="73.2" y="340.4" class="st14" width="702.4" height="0.7"/>
					</g>
					<g>
						<rect x="73.2" y="307.8" class="st14" width="702.4" height="0.7"/>
					</g>
					<g>
						<rect x="73.2" y="275.1" class="st14" width="702.4" height="0.7"/>
					</g>
					<g>
						<rect x="73.2" y="242.4" class="st14" width="702.4" height="0.7"/>
					</g>
					<g>
						<rect x="73.2" y="209.7" class="st14" width="702.4" height="0.7"/>
					</g>
				</g>
			</g>
		</g>
		<g>
			<line class="st15" x1="73.2" y1="602.3" x2="775.6" y2="602.3"/>
		</g>
		<g>
			<rect x="775.3" y="602.3" class="st14" width="0.7" height="5"/>
		</g>
		<text transform="matrix(0.7071 -0.7071 0.7071 0.7071 765.7487 639.4619)" class="st16 st7 st17">2016</text>
		<g>
			<rect x="599.8" y="602.3" class="st14" width="0.7" height="5"/>
		</g>
		<text transform="matrix(0.7071 -0.7071 0.7071 0.7071 590.2725 639.4615)" class="st16 st7 st17">2015</text>
		<g>
			<rect x="424.3" y="602.3" class="st14" width="0.7" height="5"/>
		</g>
		<text transform="matrix(0.7071 -0.7071 0.7071 0.7071 414.797 639.4619)" class="st16 st7 st17">2014</text>
		<g>
			<rect x="248.8" y="602.3" class="st14" width="0.7" height="5"/>
		</g>
		<text transform="matrix(0.7071 -0.7071 0.7071 0.7071 239.3215 639.4622)" class="st16 st7 st17">2013</text>
		<g>
			<rect x="72.9" y="602.3" class="st14" width="0.7" height="5"/>
		</g>
		<text transform="matrix(0.7071 -0.7071 0.7071 0.7071 63.3647 639.4619)" class="st16 st7 st17">2012</text>
		<g>
			<rect x="72.9" y="209.7" class="st14" width="0.7" height="393"/>
		</g>
		<g>
			<rect x="68.3" y="601.9" class="st14" width="5" height="0.7"/>
		</g>
		<text transform="matrix(1 0 0 1 52.7915 605.25)" class="st16 st7 st18">0</text>
		<g>
			<rect x="68.3" y="209.7" class="st14" width="5" height="0.7"/>
		</g>
		<text transform="matrix(1 0 0 1 21.8066 213.0044)" class="st16 st7 st18">60.000</text>
		<g>
			<rect x="68.3" y="275.1" class="st14" width="5" height="0.7"/>
		</g>
		<text transform="matrix(1 0 0 1 21.8066 278.3784)" class="st16 st7 st18">50.000</text>
		<g>
			<rect x="68.3" y="340.4" class="st14" width="5" height="0.7"/>
		</g>
		<text transform="matrix(1 0 0 1 21.8066 343.7529)" class="st16 st7 st18">40.000</text>
		<g>
			<rect x="68.3" y="405.8" class="st14" width="5" height="0.7"/>
		</g>
		<text transform="matrix(1 0 0 1 21.8066 409.127)" class="st16 st7 st18">30.000</text>
		<g>
			<rect x="68.3" y="471.2" class="st14" width="5" height="0.7"/>
		</g>
		<text transform="matrix(1 0 0 1 21.8066 474.501)" class="st16 st7 st18">20.000</text>
		<g>
			<rect x="68.3" y="536.6" class="st14" width="5" height="0.7"/>
		</g>
		<text transform="matrix(1 0 0 1 21.8066 539.875)" class="st16 st7 st18">10.000</text>
		<g>
			<rect x="68.3" y="569.2" class="st14" width="5" height="0.7"/>
		</g>
		<text transform="matrix(1 0 0 1 26.7915 572.5625)" class="st16 st7 st18">5.000</text>
		<g>
			<rect x="68.3" y="242.4" class="st14" width="5" height="0.7"/>
		</g>
		<text transform="matrix(1 0 0 1 21.8066 245.6914)" class="st16 st7 st18">55.000</text>
		<g>
			<rect x="68.3" y="307.8" class="st14" width="5" height="0.7"/>
		</g>
		<text transform="matrix(1 0 0 1 21.8066 311.0654)" class="st16 st7 st18">45.000</text>
		<g>
			<rect x="68.3" y="373.1" class="st14" width="5" height="0.7"/>
		</g>
		<text transform="matrix(1 0 0 1 21.8066 376.4395)" class="st16 st7 st18">35.000</text>
		<g>
			<path class="st16" d="M776,604.6H72.9v-395H776V604.6z M73.6,603.9h701.7V210.4H73.6V603.9z"/>
		</g>
		<g>
			<rect x="68.3" y="438.5" class="st14" width="5" height="0.7"/>
		</g>
		<text transform="matrix(1 0 0 1 21.8066 441.8145)" class="st16 st7 st18">25.000</text>
		<g>
			<rect x="68.3" y="503.9" class="st14" width="5" height="0.7"/>
		</g>
		<text transform="matrix(1 0 0 1 21.8066 507.1885)" class="st16 st7 st18">15.000</text>
		<g>
			<defs>
				<rect id="SVGID_9_" x="73.2" y="210" width="702.4" height="392.2"/>
			</defs>
			<clipPath id="SVGID_10_">
				<use xlink:href="#SVGID_9_"  style="overflow:visible;"/>
			</clipPath>
		</g>
		<g transform="translate(0, 0)">
			<g>
				<defs>
					<rect id="SVGID_11_" x="49.4" y="197.8" width="733.7" height="430"/>
				</defs>
				<clipPath id="SVGID_12_">
					<use xlink:href="#SVGID_11_"  style="overflow:visible;"/>
				</clipPath>
				<g class="st19">
					<polygon class="st14" points="73.2,205.2 73.2,205.2 73.2,205.2 					"/>
				</g>
			</g>
			<g>
				<defs>
					<rect id="SVGID_13_" x="49.4" y="197.8" width="733.7" height="430"/>
				</defs>
				<clipPath id="SVGID_14_">
					<use xlink:href="#SVGID_13_"  style="overflow:visible;"/>
				</clipPath>
			</g>
		</g>
		<g class="st20">
			<path class="st16" d="M73.2,602.3c58.7,0,117.3,0,176,0c58.5,0,117,0,175.5,0s117,0,175.5,0s117,0,175.5,0V483.4
				c-58.5-1.8-117-3.6-175.5-10.8s-117-243.4-175.5-243.4s-117,210.1-175.5,210.1c-58.7,0-117.3-10.3-176-20.6V602.3z"/>
		</g>
		<g id="data-points">
			<g>
				<defs>
					<rect id="SVGID_15_" x="49.4" y="197.8" width="733.7" height="430"/>
				</defs>
				<clipPath id="SVGID_16_">
					<use xlink:href="#SVGID_15_"  style="overflow:visible;"/>
				</clipPath>
				<g transform="translate(0,0)" class="st21">
					<g id="point-0-0">
						<path class="st22" d="M70.8,418.6c0-1.4,1.1-2.5,2.5-2.5s2.5,1.1,2.5,2.5s-1.1,2.5-2.5,2.5S70.8,420,70.8,418.6z"/>
					</g>
					<g id="point-0-1">
						<path class="st22" d="M246.7,439.3c0-1.4,1.1-2.5,2.5-2.5s2.5,1.1,2.5,2.5c0,1.4-1.1,2.5-2.5,2.5S246.7,440.6,246.7,439.3z"/>
					</g>
					<g id="point-0-2">
						<path class="st22" d="M422.2,229.2c0-1.4,1.1-2.5,2.5-2.5s2.5,1.1,2.5,2.5s-1.1,2.5-2.5,2.5S422.2,230.6,422.2,229.2z"/>
					</g>
					<g id="point-0-3">
						<path class="st22" d="M597.7,472.6c0-1.4,1.1-2.5,2.5-2.5c1.4,0,2.5,1.1,2.5,2.5l0,0c0,1.4-1.1,2.5-2.5,2.5
							C598.8,475.1,597.7,473.9,597.7,472.6z"/>
					</g>
					<g id="point-0-4">
						<path class="st22" d="M773.1,483.4c0-1.4,1.1-2.5,2.5-2.5c1.4,0,2.5,1.1,2.5,2.5s-1.1,2.5-2.5,2.5
							C774.3,485.9,773.1,484.8,773.1,483.4z"/>
					</g>
				</g>
			</g>
		</g>
		<g id="data-point-labels">
			<g>
				<defs>
					<rect id="SVGID_17_" x="49.4" y="197.8" width="733.7" height="430"/>
				</defs>
				<clipPath id="SVGID_18_">
					<use xlink:href="#SVGID_17_"  style="overflow:visible;"/>
				</clipPath>
				<g transform="translate(0,0)" class="st23">
				</g>
			</g>
		</g>
		<rect x="73.2" y="160.4" class="st24" width="21.3" height="21.3"/>
		<rect x="106.7" y="165.2" class="st1" width="126.2" height="14.8"/>
		<text transform="matrix(1 0 0 1 106.7471 175.4185)" class="st16 st7 st25">Volumen Exportado</text>
		<g>
			<path class="st22" d="M775.6,484.1c-57.5-1.8-117-3.6-175.5-10.8c-29.2-3.6-58.5-63.8-86.9-122c-29.1-59.7-59.2-121.4-88.5-121.4
				c-28.8,0-58.5,53.2-87.1,104.7C308.7,386.4,278.9,440,249.2,440c-58.7,0-118.4-10.5-176.1-20.6l0.2-1.4
				c57.6,10.1,117.2,20.6,175.8,20.6c28.8,0,58.5-53.2,87.1-104.7c28.9-51.8,58.7-105.4,88.4-105.4c30.1,0,60.4,62.1,89.7,122.2
				c28.2,57.9,57.4,117.7,85.8,121.2c58.5,7.2,117.9,9,175.4,10.8L775.6,484.1z"/>
		</g>
	</g>
</g>
</svg>
