<svg version="1.1" xmlns="http://www.w3.org/2000/svg" xmlns:xlink="http://www.w3.org/1999/xlink" x="0px" y="0px"
	 viewBox="0 0 1000 800" style="enable-background:new 0 0 1000 800;" xml:space="preserve">
<style type="text/css">
	.st0{display:none;}
	.st1{display:inline;fill:#A39688;}
	.st2{fill:#333333;}
	.st3{opacity:0.3;}
	.st4{fill:#FFFFFF;stroke:#A2004A;stroke-width:34;stroke-miterlimit:10;}
	.st5{fill:#FFFFFF;stroke:#FFF445;stroke-width:34;}
	.st6{fill:none;stroke:#B9DCFF;stroke-width:34;}
	.st7{fill:#595959;}
	.st8{font-family:'Montserrat-Medium';}
	.st9{font-size:15px;}
	.st10{fill:#262626;}
	.st11{font-family:'Montserrat-Bold';}
	.st12{font-size:16px;}
	.st13{enable-background:new    ;}
	.st14{fill:#EBEBEB;}
	.st15{font-size:17px;}
	.st16{fill:#3B3B3B;}
	.st17{font-size:22px;}
	.st18{fill:none;}
</style>
<g id="Capa_2" class="st0">
	<rect x="-57.6" y="78.2" class="st1" width="938" height="767.2"/>
</g>
<g id="Capa_1">
	<g>
		<rect x="100.8" y="137.1" class="st2" width="5" height="34">
		<title>Viuda negra: 1</title>
		</rect>
		<rect x="100.8" y="176.1" class="st2" width="5" height="34">
		<title>Araña de rincón: 1</title>
		</rect>
		<rect x="100.8" y="215.1" class="st2" width="5" height="34">
		<title>Araña lobo: 1</title>
		</rect>
		<rect x="100.8" y="254.1" class="st2" width="5" height="34">
		<title>Falsa viuda negra: 1</title>
		</rect>
		<rect x="100.8" y="293.1" class="st2" width="5" height="34">
		<title>Araña sicario : 1</title>
		</rect>
		<rect x="100.8" y="332.1" class="st2" width="5" height="34">
		<title>Araña del ratón: 1</title>
		</rect>
		<rect x="100.8" y="371.1" class="st2" width="5" height="34">
		<title>Araña cangrejo: 1</title>
		</rect>
		<rect x="100.8" y="410.1" class="st2" width="5" height="34">
		<title>Arañon del monte: 1</title>
		</rect>
		<rect x="100.8" y="449.1" class="st2" width="5" height="34">
		<title>Araña del boldo: 1</title>
		</rect>
		<rect x="100.8" y="488.1" class="st2" width="5" height="34">
		<title>Argiope argentata: 1</title>
		</rect>
		<rect x="100.8" y="527.1" class="st2" width="5" height="34">
		<title>Euathlus sp. (Araña Pollito): 1</title>
		</rect>
		<rect x="100.8" y="566.1" class="st2" width="5" height="34">
		<title>Araña fantasma: 1</title>
		</rect>
		<rect x="100.8" y="605.1" class="st2" width="5" height="34">
		<title>Metepeira sp.: 1</title>
		</rect>
		<rect x="100.8" y="644.1" class="st2" width="5" height="34">
		<title>Platnickia sp.: 1</title>
		</rect>
		<rect x="100.8" y="683.1" class="st2" width="5" height="34">
		<title>Araña saltarina: 1</title>
		</rect>
		<rect x="880.8" y="167.1" class="st2" width="5" height="68">
		<title>Mortal y peligrosa: 2</title>
		</rect>
		<rect x="880.8" y="240.1" class="st2" width="5" height="136">
		<title>Tóxica con mordida dolorosa
: 4</title>
		</rect>
		<rect x="880.8" y="381.1" class="st2" width="5" height="306">
		<title>Sin riesgo: 9</title>
		</rect>
	</g>
	<g class="st3">
		<g>
			<path class="st4" d="M105.8,154.1c387.5,0,387.5,30,775,30"/>
			<title>Viuda negra → Mortal y peligrosa: 1</title>
		</g>
		<g>
			<path class="st4" d="M105.8,193.1c387.5,0,387.5,25,775,25"/>
			<title>Araña de rincón → Mortal y peligrosa: 1</title>
		</g>
		<g>
			<path class="st5" d="M105.8,232.1c387.5,0,387.5,25,775,25"/>
			<title>Araña lobo → Tóxica con mordida dolorosa
: 1</title>
		</g>
		<g>
			<path class="st5" d="M105.8,271.1c387.5,0,387.5,20,775,20"/>
			<title>Falsa viuda negra → Tóxica con mordida dolorosa
: 1</title>
		</g>
		<g>
			<path class="st5" d="M105.8,310.1c387.5,0,387.5,15,775,15"/>
			<title>Araña sicario  → Tóxica con mordida dolorosa
: 1</title>
		</g>
		<g>
			<path class="st5" d="M105.8,349.1c387.5,0,387.5,10,775,10"/>
			<title>Araña del ratón → Tóxica con mordida dolorosa
: 1</title>
		</g>
		<g>
			<path class="st6" d="M105.8,388.1c387.5,0,387.5,10,775,10"/>
			<title>Araña cangrejo → Sin riesgo: 1</title>
		</g>
		<g>
			<path class="st6" d="M105.8,427.1c387.5,0,387.5,5,775,5"/>
			<title>Arañon del monte → Sin riesgo: 1</title>
		</g>
		<g>
			<path class="st6" d="M105.8,466.1c387.5,0,387.5,0,775,0"/>
			<title>Araña del boldo → Sin riesgo: 1</title>
		</g>
		<g>
			<path class="st6" d="M105.8,505.1c387.5,0,387.5-5,775-5"/>
			<title>Argiope argentata → Sin riesgo: 1</title>
		</g>
		<g>
			<path class="st6" d="M105.8,544.1c387.5,0,387.5-10,775-10"/>
			<title>Euathlus sp. (Araña Pollito) → Sin riesgo: 1</title>
		</g>
		<g>
			<path class="st6" d="M105.8,583.1c387.5,0,387.5-15,775-15"/>
			<title>Araña fantasma → Sin riesgo: 1</title>
		</g>
		<g>
			<path class="st6" d="M105.8,622.1c387.5,0,387.5-20,775-20"/>
			<title>Metepeira sp. → Sin riesgo: 1</title>
		</g>
		<g>
			<path class="st6" d="M105.8,661.1c387.5,0,387.5-25,775-25"/>
			<title>Platnickia sp. → Sin riesgo: 1</title>
		</g>
		<g>
			<path class="st6" d="M105.8,700.1c387.5,0,387.5-30,775-30"/>
			<title>Araña saltarina → Sin riesgo: 1</title>
		</g>
	</g>
	<text transform="matrix(1 0 0 1 109.7534 159.595)" class="st7 st8 st9">Viuda negra</text>
	<text transform="matrix(1 0 0 1 109.7534 197.595)" class="st7 st8 st9">Araña de rincón</text>
	<text transform="matrix(1 0 0 1 109.7534 237.595)" class="st7 st8 st9">Araña lobo</text>
	<text transform="matrix(1 0 0 1 109.7534 275.595)" class="st7 st8 st9">Falsa viuda negra</text>
	<text transform="matrix(1 0 0 1 109.7534 314.595)" class="st7 st8 st9">Araña sicario</text>
	<text transform="matrix(1 0 0 1 109.7534 352.595)" class="st7 st8 st9">Araña del ratón</text>
	<text transform="matrix(1 0 0 1 109.7534 391.595)" class="st7 st8 st9">Araña cangrejo</text>
	<text transform="matrix(1 0 0 1 109.7534 431.595)" class="st7 st8 st9">Arañon del monte</text>
	<text transform="matrix(1 0 0 1 109.7534 470.595)" class="st7 st8 st9">Araña del boldo</text>
	<text transform="matrix(1 0 0 1 109.7534 508.595)" class="st7 st8 st9">Argiope argentata</text>
	<text transform="matrix(1 0 0 1 109.7534 548.595)" class="st10 st11 st12">Euathlus sp. (Araña Pollito)</text>
	<text transform="matrix(1 0 0 1 109.7534 588.595)" class="st7 st8 st9">Araña fantasma</text>
	<text transform="matrix(1 0 0 1 109.7534 626.595)" class="st7 st8 st9">Metepeira sp.</text>
	<text transform="matrix(1 0 0 1 109.7534 664.595)" class="st7 st8 st9">Platnickia sp.</text>
	<text transform="matrix(1 0 0 1 109.7534 702.595)" class="st7 st8 st9">Araña saltarina</text>
	<text transform="matrix(1 0 0 1 794.729 196.5951)" class="st13"><tspan x="0" y="0" class="st14 st11 st15">Mortal y</tspan><tspan x="-9.9" y="20.4" class="st14 st11 st15">peligrosa</tspan></text>
	<g>
		<text transform="matrix(1 0 0 1 784.8519 539.1132)" class="st14 st11 st15">Sin riesgo</text>
	</g>
	<g>
		<text transform="matrix(1 0 0 1 86.2466 123.114)" class="st16 st11 st17">Araña</text>
		<g>
			<text transform="matrix(1 0 0 1 818.537 137.114)" class="st16 st11 st17">Picadura</text>
		</g>
	</g>
	<g>
		<rect x="769.7" y="292.2" class="st18" width="97.7" height="66.9"/>
		<text transform="matrix(1 0 0 1 772.2551 304.7812)"><tspan x="0" y="0" class="st14 st11 st15">Tóxica con </tspan><tspan x="19.7" y="20.4" class="st14 st11 st15">mordida </tspan><tspan x="18" y="40.8" class="st14 st11 st15">dolorosa</tspan></text>
	</g>
</g>
</svg>