<?xml version="1.0" encoding="utf-8"?>
<!-- Generator: Adobe Illustrator 22.1.0, SVG Export Plug-In . SVG Version: 6.00 Build 0)  -->
<svg version="1.1" xmlns="http://www.w3.org/2000/svg" xmlns:xlink="http://www.w3.org/1999/xlink" x="0px" y="0px"
	 viewBox="0 0 400 800" style="enable-background:new 0 0 400 800;" xml:space="preserve">
<style type="text/css">
	.st0{display:none;fill:none;stroke:#FF0000;}
	.st1{fill:none;}
	.st2{fill:#1D1D1B;}
	.st3{font-family:'Montserrat-Bold';}
	.st4{font-size:17px;}
	.st5{opacity:0.5;}
	.st6{fill:#FFFDFC;}
	.st7{font-family:'ArialMT';}
	.st8{font-size:10.1075px;}
	.st9{clip-path:url(#SVGID_3_);}
	.st10{display:none;clip-path:url(#SVGID_4_);fill:none;}
	.st11{opacity:0;}
	.st12{clip-path:url(#SVGID_8_);}
	.st13{fill:#EEEEEE;}
	.st14{fill:none;stroke:#EEEEEE;stroke-width:0.7113;stroke-linecap:square;}
	.st15{fill:#FFFFFF;}
	.st16{font-size:12px;}
	.st17{font-size:11px;}
	.st18{clip-path:url(#SVGID_12_);}
	.st19{opacity:0.7;}
	.st20{clip-path:url(#SVGID_16_);}
	.st21{fill:#403427;}
	.st22{clip-path:url(#SVGID_18_);}
	.st23{fill:#FFFFFF;fill-opacity:0.7;}
	.st24{font-size:14px;}
</style>
<g id="Capa_2">
</g>
<g id="Capa_1">
	<rect x="-310.5" y="123.5" class="st0" width="1020" height="597"/>
	<g id="stack-labels">
	</g>
	<g>
		<rect x="28.4" y="112.3" class="st1" width="368.2" height="42.7"/>
		<text transform="matrix(1 0 0 1 28.4097 124.8788)"><tspan x="0" y="0" class="st2 st3 st4">Volumen exportaciones Araña Pollito</tspan><tspan x="0" y="20.4" class="st2 st3 st4">(desde 2012)</tspan></text>
		<rect x="43.5" y="628.3" class="st1" width="273.5" height="59.4"/>
		<text transform="matrix(1 0 0 1 43.459 635.5826)" class="st5"><tspan x="0" y="0" class="st6 st7 st8">Fuente: ODEPA (2021) Oficina de estudios y políticas </tspan><tspan x="0" y="12.1" class="st6 st7 st8">agrarias: Estadísticas de exportación Araña pollito </tspan><tspan x="0" y="24.3" class="st6 st7 st8">(Migalomorfas, suborden Araneae) Código SACH 01069020. </tspan><tspan x="0" y="36.4" class="st6 st7 st8">Período anual desde 1998 hasta 2021.</tspan></text>
		<g>
			<defs>
				<polygon id="SVGID_1_" points="28.3,261.3 28.9,261.3 28.3,262 				"/>
			</defs>
			<defs>
				<polygon id="SVGID_2_" points="26.9,260 26.3,260 26.9,259.3 				"/>
			</defs>
			<clipPath id="SVGID_3_">
				<use xlink:href="#SVGID_1_"  style="overflow:visible;"/>
			</clipPath>
			<clipPath id="SVGID_4_" class="st9">
				<use xlink:href="#SVGID_2_"  style="overflow:visible;"/>
			</clipPath>
			<path class="st10" d="M26.9,259.3"/>
		</g>
		<g>
			<rect x="49.1" y="258.3" class="st1" width="340" height="292.8"/>
		</g>
		<g class="st11">
			<rect x="49.1" y="258.3" width="340" height="292.8"/>
		</g>
		<g>
			<defs>
				<rect id="SVGID_5_" x="49.1" y="258.3" width="340" height="292.8"/>
			</defs>
			<clipPath id="SVGID_6_">
				<use xlink:href="#SVGID_5_"  style="overflow:visible;"/>
			</clipPath>
		</g>
		<g>
			<defs>
				<rect id="SVGID_7_" x="48.8" y="257.7" width="340.7" height="293.9"/>
			</defs>
			<clipPath id="SVGID_8_">
				<use xlink:href="#SVGID_7_"  style="overflow:visible;"/>
			</clipPath>
			<g class="st12">
				<g>
					<g>
						<rect x="49.1" y="550.8" class="st13" width="340" height="0.5"/>
					</g>
					<g>
						<rect x="49.1" y="526.4" class="st13" width="340" height="0.5"/>
					</g>
					<g>
						<rect x="49.1" y="502" class="st13" width="340" height="0.5"/>
					</g>
					<g>
						<rect x="49.1" y="477.6" class="st13" width="340" height="0.5"/>
					</g>
					<g>
						<rect x="49.1" y="453.2" class="st13" width="340" height="0.5"/>
					</g>
					<g>
						<rect x="49.1" y="428.8" class="st13" width="340" height="0.5"/>
					</g>
					<g>
						<rect x="49.1" y="404.4" class="st13" width="340" height="0.5"/>
					</g>
					<g>
						<rect x="49.1" y="380" class="st13" width="340" height="0.5"/>
					</g>
					<g>
						<rect x="49.1" y="355.6" class="st13" width="340" height="0.5"/>
					</g>
					<g>
						<rect x="49.1" y="331.2" class="st13" width="340" height="0.5"/>
					</g>
					<g>
						<rect x="49.1" y="306.8" class="st13" width="340" height="0.5"/>
					</g>
					<g>
						<rect x="49.1" y="282.4" class="st13" width="340" height="0.5"/>
					</g>
					<g>
						<rect x="49.1" y="258" class="st13" width="340" height="0.5"/>
					</g>
				</g>
			</g>
		</g>
		<g>
			<line class="st14" x1="49.1" y1="551.1" x2="389.1" y2="551.1"/>
		</g>
		<g>
			<rect x="388.9" y="551.1" class="st13" width="0.3" height="3.7"/>
		</g>
		<text transform="matrix(0.7071 -0.7071 0.7071 0.7071 379.3781 588.2037)" class="st15 st7 st16">2016</text>
		<g>
			<rect x="304" y="551.1" class="st13" width="0.3" height="3.7"/>
		</g>
		<text transform="matrix(0.7071 -0.7071 0.7071 0.7071 296.2841 588.2033)" class="st15 st7 st16">2015</text>
		<g>
			<rect x="219" y="551.1" class="st13" width="0.3" height="3.7"/>
		</g>
		<text transform="matrix(0.7071 -0.7071 0.7071 0.7071 212.1902 588.2029)" class="st15 st7 st16">2014</text>
		<g>
			<rect x="134.1" y="551.1" class="st13" width="0.3" height="3.7"/>
		</g>
		<text transform="matrix(0.7071 -0.7071 0.7071 0.7071 125.0976 588.2039)" class="st15 st7 st16">2013</text>
		<g>
			<rect x="48.9" y="551.1" class="st13" width="0.3" height="3.7"/>
		</g>
		<text transform="matrix(0.7071 -0.7071 0.7071 0.7071 43.5902 588.204)" class="st15 st7 st16">2012</text>
		<g>
			<rect x="48.9" y="258" class="st13" width="0.3" height="293.4"/>
		</g>
		<g>
			<rect x="46.7" y="550.8" class="st13" width="2.4" height="0.5"/>
		</g>
		<text transform="matrix(1 0 0 1 32.9067 555.1793)" class="st15 st7 st17">0</text>
		<g>
			<rect x="46.7" y="258" class="st13" width="2.4" height="0.5"/>
		</g>
		<text transform="matrix(1 0 0 1 7.3911 262.4684)" class="st15 st7 st17">60.000</text>
		<g>
			<rect x="46.7" y="306.8" class="st13" width="2.4" height="0.5"/>
		</g>
		<text transform="matrix(1 0 0 1 7.3911 312.0855)" class="st15 st7 st17">50.000</text>
		<g>
			<rect x="46.7" y="355.6" class="st13" width="2.4" height="0.5"/>
		</g>
		<text transform="matrix(1 0 0 1 7.3911 361.7018)" class="st15 st7 st17">40.000</text>
		<g>
			<rect x="46.7" y="404.4" class="st13" width="2.4" height="0.5"/>
		</g>
		<text transform="matrix(1 0 0 1 7.3911 411.317)" class="st15 st7 st17">30.000</text>
		<g>
			<rect x="46.7" y="453.2" class="st13" width="2.4" height="0.5"/>
		</g>
		<text transform="matrix(1 0 0 1 7.3911 460.9342)" class="st15 st7 st17">20.000</text>
		<g>
			<rect x="46.7" y="502" class="st13" width="2.4" height="0.5"/>
		</g>
		<text transform="matrix(1 0 0 1 7.3911 510.5514)" class="st15 st7 st17">10.000</text>
		<g>
			<rect x="46.7" y="526.4" class="st13" width="2.4" height="0.5"/>
		</g>
		<text transform="matrix(1 0 0 1 11.1743 535.3599)" class="st15 st7 st17">5.000</text>
		<g>
			<rect x="46.7" y="282.4" class="st13" width="2.4" height="0.5"/>
		</g>
		<text transform="matrix(1 0 0 1 7.3911 287.275)" class="st15 st7 st17">55.000</text>
		<g>
			<rect x="46.7" y="331.2" class="st13" width="2.4" height="0.5"/>
		</g>
		<text transform="matrix(1 0 0 1 7.3911 336.8922)" class="st15 st7 st17">45.000</text>
		<g>
			<rect x="46.7" y="380" class="st13" width="2.4" height="0.5"/>
		</g>
		<text transform="matrix(1 0 0 1 7.3911 386.5094)" class="st15 st7 st17">35.000</text>
		<g>
			<path class="st15" d="M389.2,552.9H48.9V258h340.3V552.9z M49.3,552.3h339.6V258.5H49.3V552.3z"/>
		</g>
		<g>
			<rect x="46.7" y="428.8" class="st13" width="2.4" height="0.5"/>
		</g>
		<text transform="matrix(1 0 0 1 7.3911 436.1266)" class="st15 st7 st17">25.000</text>
		<g>
			<rect x="46.7" y="477.6" class="st13" width="2.4" height="0.5"/>
		</g>
		<text transform="matrix(1 0 0 1 7.3911 485.7437)" class="st15 st7 st17">15.000</text>
		<g>
			<defs>
				<rect id="SVGID_9_" x="49.1" y="258.3" width="340" height="292.8"/>
			</defs>
			<clipPath id="SVGID_10_">
				<use xlink:href="#SVGID_9_"  style="overflow:visible;"/>
			</clipPath>
		</g>
		<g transform="translate(0, 0)">
			<g>
				<defs>
					<rect id="SVGID_11_" x="37.6" y="249.1" width="355.1" height="321"/>
				</defs>
				<clipPath id="SVGID_12_">
					<use xlink:href="#SVGID_11_"  style="overflow:visible;"/>
				</clipPath>
				<g class="st18">
					<polygon class="st13" points="49.1,254.7 49.1,254.7 49.1,254.7 					"/>
				</g>
			</g>
			<g>
				<defs>
					<rect id="SVGID_13_" x="37.6" y="249.1" width="355.1" height="321"/>
				</defs>
				<clipPath id="SVGID_14_">
					<use xlink:href="#SVGID_13_"  style="overflow:visible;"/>
				</clipPath>
			</g>
		</g>
		<g class="st19">
			<path class="st15" d="M49.1,551.1c28.4,0,56.8,0,85.2,0c28.3,0,56.6,0,84.9,0s56.6,0,84.9,0s56.6,0,84.9,0v-88.8
				c-28.3-1.3-56.6-2.7-84.9-8.1s-56.6-181.7-84.9-181.7s-56.6,156.8-84.9,156.8c-28.4,0-56.8-7.7-85.2-15.4V551.1z"/>
		</g>
		<g id="data-points">
			<g>
				<defs>
					<rect id="SVGID_15_" x="37.6" y="249.1" width="355.1" height="321"/>
				</defs>
				<clipPath id="SVGID_16_">
					<use xlink:href="#SVGID_15_"  style="overflow:visible;"/>
				</clipPath>
				<g transform="translate(0,0)" class="st20">
					<g id="point-0-0">
						<path class="st21" d="M47.9,414c0-1,0.5-1.9,1.2-1.9s1.2,0.8,1.2,1.9c0,1-0.5,1.9-1.2,1.9S47.9,415,47.9,414z"/>
					</g>
					<g id="point-0-1">
						<path class="st21" d="M133.1,429.4c0-1,0.5-1.9,1.2-1.9c0.7,0,1.2,0.8,1.2,1.9c0,1-0.5,1.9-1.2,1.9
							C133.6,431.3,133.1,430.4,133.1,429.4z"/>
					</g>
					<g id="point-0-2">
						<path class="st21" d="M218,272.6c0-1,0.5-1.9,1.2-1.9s1.2,0.8,1.2,1.9c0,1-0.5,1.9-1.2,1.9S218,273.6,218,272.6z"/>
					</g>
					<g id="point-0-3">
						<path class="st21" d="M302.9,454.3c0-1,0.5-1.9,1.2-1.9c0.7,0,1.2,0.8,1.2,1.9l0,0c0,1-0.5,1.9-1.2,1.9
							C303.5,456.1,302.9,455.3,302.9,454.3z"/>
					</g>
					<g id="point-0-4">
						<path class="st21" d="M387.9,462.3c0-1,0.5-1.9,1.2-1.9c0.7,0,1.2,0.8,1.2,1.9c0,1-0.5,1.9-1.2,1.9
							C388.4,464.2,387.9,463.4,387.9,462.3z"/>
					</g>
				</g>
			</g>
		</g>
		<g id="data-point-labels">
			<g>
				<defs>
					<rect id="SVGID_17_" x="37.6" y="249.1" width="355.1" height="321"/>
				</defs>
				<clipPath id="SVGID_18_">
					<use xlink:href="#SVGID_17_"  style="overflow:visible;"/>
				</clipPath>
				<g transform="translate(0,0)" class="st22">
				</g>
			</g>
		</g>
		<rect x="41.1" y="199.7" class="st23" width="18.4" height="18.4"/>
		<rect x="69.9" y="203.9" class="st1" width="134.2" height="12.7"/>
		<text transform="matrix(1 0 0 1 69.9443 213.8927)" class="st15 st7 st24">Volumen Exportado</text>
		<g>
			<path class="st21" d="M389.1,462.9c-27.8-1.3-56.6-2.7-85-8.1c-14.1-2.7-28.3-47.6-42.1-91.1c-14.1-44.5-28.7-90.6-42.8-90.6
				c-14,0-28.3,39.7-42.2,78.1c-14,38.7-28.4,78.7-42.8,78.7c-28.4,0-57.3-7.8-85.2-15.4l0.1-1c27.9,7.6,56.7,15.4,85.1,15.4
				c14,0,28.3-39.7,42.2-78.1c14-38.7,28.4-78.7,42.8-78.7c14.6,0,29.3,46.4,43.4,91.2c13.7,43.2,27.8,87.9,41.5,90.5
				c28.3,5.4,57.1,6.7,84.9,8.1L389.1,462.9z"/>
		</g>
	</g>
</g>
</svg>
