<svg version="1.1" xmlns="http://www.w3.org/2000/svg" xmlns:xlink="http://www.w3.org/1999/xlink" x="0px" y="0px"
	 viewBox="0 0 400 800" style="enable-background:new 0 0 400 800;" xml:space="preserve">
<style type="text/css">
	.st0{display:none;}
	.st1{display:inline;fill:#A39688;}
	.st2{fill:#333333;}
	.st3{opacity:0.3;}
	.st4{fill:#FFFFFF;stroke:#A2004A;stroke-width:34;stroke-miterlimit:10;}
	.st5{fill:#FFFFFF;stroke:#FFF445;stroke-width:34;}
	.st6{fill:none;stroke:#B9DCFF;stroke-width:34;}
	.st7{fill:#595959;}
	.st8{font-family:'Montserrat-Medium';}
	.st9{font-size:15px;}
	.st10{fill:#262626;}
	.st11{font-family:'Montserrat-Bold';}
	.st12{enable-background:new    ;}
	.st13{fill:#EBEBEB;}
	.st14{font-size:18px;}
	.st15{font-size:17px;}
	.st16{fill:none;}
	.st17{fill:#3B3B3B;}
	.st18{font-size:24px;}
</style>
<g id="Capa_2" class="st0">
	<rect x="-357.6" y="78.2" class="st1" width="938" height="767.2"/>
</g>
<g id="Capa_1">
	<g>
		<rect x="7.5" y="184.1" class="st2" width="2.5" height="34">
		<title>Viuda negra: 1</title>
		</rect>
		<rect x="7.5" y="223.1" class="st2" width="2.5" height="34">
		<title>Araña de rincón: 1</title>
		</rect>
		<rect x="7.5" y="262.1" class="st2" width="2.5" height="34">
		<title>Araña lobo: 1</title>
		</rect>
		<rect x="7.5" y="301.1" class="st2" width="2.5" height="34">
		<title>Falsa viuda negra: 1</title>
		</rect>
		<rect x="7.5" y="340.1" class="st2" width="2.5" height="34">
		<title>Araña sicario : 1</title>
		</rect>
		<rect x="7.5" y="379.1" class="st2" width="2.5" height="34">
		<title>Araña del ratón: 1</title>
		</rect>
		<rect x="7.5" y="418.1" class="st2" width="2.5" height="34">
		<title>Araña cangrejo: 1</title>
		</rect>
		<rect x="7.5" y="457.1" class="st2" width="2.5" height="34">
		<title>Arañon del monte: 1</title>
		</rect>
		<rect x="7.5" y="496.1" class="st2" width="2.5" height="34">
		<title>Araña del boldo: 1</title>
		</rect>
		<rect x="7.5" y="535.1" class="st2" width="2.5" height="34">
		<title>Argiope argentata: 1</title>
		</rect>
		<rect x="7.5" y="574.1" class="st2" width="2.5" height="34">
		<title>Euathlus sp. (Araña Pollito): 1</title>
		</rect>
		<rect x="7.5" y="613.1" class="st2" width="2.5" height="34">
		<title>Araña fantasma: 1</title>
		</rect>
		<rect x="7.5" y="652.1" class="st2" width="2.5" height="34">
		<title>Metepeira sp.: 1</title>
		</rect>
		<rect x="7.5" y="691.1" class="st2" width="2.5" height="34">
		<title>Platnickia sp.: 1</title>
		</rect>
		<rect x="7.5" y="730.1" class="st2" width="2.5" height="34">
		<title>Araña saltarina: 1</title>
		</rect>
		<rect x="390.2" y="214.1" class="st2" width="2.5" height="68">
		<title>Mortal y peligrosa: 2</title>
		</rect>
		<rect x="390.2" y="287.1" class="st2" width="2.5" height="136">
		<title>Tóxica con mordida dolorosa
: 4</title>
		</rect>
		<rect x="390.2" y="428.1" class="st2" width="2.5" height="306">
		<title>Sin riesgo: 9</title>
		</rect>
	</g>
	<g class="st3">
		<g>
			<path class="st4" d="M9.9,201.1c190.1,0,190.1,30,380.2,30"/>
			<title>Viuda negra → Mortal y peligrosa: 1</title>
		</g>
		<g>
			<path class="st4" d="M9.9,240.1c190.1,0,190.1,25,380.2,25"/>
			<title>Araña de rincón → Mortal y peligrosa: 1</title>
		</g>
		<g>
			<path class="st5" d="M9.9,279.1c190.1,0,190.1,25,380.2,25"/>
			<title>Araña lobo → Tóxica con mordida dolorosa
: 1</title>
		</g>
		<g>
			<path class="st5" d="M9.9,318.1c190.1,0,190.1,20,380.2,20"/>
			<title>Falsa viuda negra → Tóxica con mordida dolorosa
: 1</title>
		</g>
		<g>
			<path class="st5" d="M9.9,357.1c190.1,0,190.1,15,380.2,15"/>
			<title>Araña sicario  → Tóxica con mordida dolorosa
: 1</title>
		</g>
		<g>
			<path class="st5" d="M9.9,396.1c190.1,0,190.1,10,380.2,10"/>
			<title>Araña del ratón → Tóxica con mordida dolorosa
: 1</title>
		</g>
		<g>
			<path class="st6" d="M9.9,435.1c190.1,0,190.1,10,380.2,10"/>
			<title>Araña cangrejo → Sin riesgo: 1</title>
		</g>
		<g>
			<path class="st6" d="M9.9,474.1c190.1,0,190.1,5,380.2,5"/>
			<title>Arañon del monte → Sin riesgo: 1</title>
		</g>
		<g>
			<path class="st6" d="M9.9,513.1c190.1,0,190.1,0,380.2,0"/>
			<title>Araña del boldo → Sin riesgo: 1</title>
		</g>
		<g>
			<path class="st6" d="M9.9,552.1c190.1,0,190.1-5,380.2-5"/>
			<title>Argiope argentata → Sin riesgo: 1</title>
		</g>
		<g>
			<path class="st6" d="M9.9,591.1c190.1,0,190.1-10,380.2-10"/>
			<title>Euathlus sp. (Araña Pollito) → Sin riesgo: 1</title>
		</g>
		<g>
			<path class="st6" d="M9.9,630.1c190.1,0,190.1-15,380.2-15"/>
			<title>Araña fantasma → Sin riesgo: 1</title>
		</g>
		<g>
			<path class="st6" d="M9.9,669.1c190.1,0,190.1-20,380.2-20"/>
			<title>Metepeira sp. → Sin riesgo: 1</title>
		</g>
		<g>
			<path class="st6" d="M9.9,708.1c190.1,0,190.1-25,380.2-25"/>
			<title>Platnickia sp. → Sin riesgo: 1</title>
		</g>
		<g>
			<path class="st6" d="M9.9,747.1c190.1,0,190.1-30,380.2-30"/>
			<title>Araña saltarina → Sin riesgo: 1</title>
		</g>
	</g>
	<text transform="matrix(1 0 0 1 16.4559 206.595)" class="st7 st8 st9">Viuda negra</text>
	<text transform="matrix(1 0 0 1 16.4559 244.595)" class="st7 st8 st9">Araña de rincón</text>
	<text transform="matrix(1 0 0 1 16.4559 284.595)" class="st7 st8 st9">Araña lobo</text>
	<text transform="matrix(1 0 0 1 16.4559 322.595)" class="st7 st8 st9">Falsa viuda negra</text>
	<text transform="matrix(1 0 0 1 16.4559 361.595)" class="st7 st8 st9">Araña sicario</text>
	<text transform="matrix(1 0 0 1 16.4559 399.595)" class="st7 st8 st9">Araña del ratón</text>
	<text transform="matrix(1 0 0 1 16.4559 438.595)" class="st7 st8 st9">Araña cangrejo</text>
	<text transform="matrix(1 0 0 1 16.4559 478.595)" class="st7 st8 st9">Arañon del monte</text>
	<text transform="matrix(1 0 0 1 16.4559 517.595)" class="st7 st8 st9">Araña del boldo</text>
	<text transform="matrix(1 0 0 1 16.4559 555.595)" class="st7 st8 st9">Argiope argentata</text>
	<text transform="matrix(1 0 0 1 16.4559 595.595)" class="st10 st11 st9">Euathlus sp. (Araña Pollito)</text>
	<text transform="matrix(1 0 0 1 16.4559 635.595)" class="st7 st8 st9">Araña fantasma</text>
	<text transform="matrix(1 0 0 1 16.4559 673.595)" class="st7 st8 st9">Metepeira sp.</text>
	<text transform="matrix(1 0 0 1 16.4559 711.595)" class="st7 st8 st9">Platnickia sp.</text>
	<text transform="matrix(1 0 0 1 16.4559 749.595)" class="st7 st8 st9">Araña saltarina</text>
	<text transform="matrix(1 0 0 1 298.2483 243.5951)" class="st12"><tspan x="0" y="0" class="st13 st11 st14">Mortal y</tspan><tspan x="-10.5" y="21.6" class="st13 st11 st14">peligrosa</tspan></text>
	<g>
		<text transform="matrix(1 0 0 1 280.9934 592.0853)" class="st13 st11 st14">Sin riesgo</text>
	</g>
	<g>
		<text transform="matrix(1 0 0 1 7.456 174.1143)" class="st7 st11 st15">Araña</text>
		<g>
			<text transform="matrix(1 0 0 1 312.5628 194.1141)" class="st7 st11 st15">Picadura</text>
		</g>
	</g>
	<g>
		<rect x="262.5" y="338.6" class="st16" width="112.7" height="66.9"/>
		<text transform="matrix(1 0 0 1 274.4528 351.9969)"><tspan x="0" y="0" class="st13 st11 st14">Tóxica con </tspan><tspan x="20.9" y="21.6" class="st13 st11 st14">mordida </tspan><tspan x="19.1" y="43.2" class="st13 st11 st14">dolorosa</tspan></text>
	</g>
	<g>
		<rect x="43.8" y="58" class="st16" width="312.5" height="58"/>
		<text transform="matrix(1 0 0 1 54.9224 75.7836)"><tspan x="0" y="0" class="st17 st11 st18">Clasificación de arañas </tspan><tspan x="29.7" y="28.8" class="st17 st11 st18">según la picadura.</tspan></text>
	</g>
</g>
</svg>