<?xml version="1.0" encoding="utf-8"?>
<!-- Generator: Adobe Illustrator 22.1.0, SVG Export Plug-In . SVG Version: 6.00 Build 0)  -->
<svg version="1.1" xmlns="http://www.w3.org/2000/svg" xmlns:xlink="http://www.w3.org/1999/xlink" x="0px" y="0px"
	 viewBox="0 0 400 800" style="enable-background:new 0 0 400 800;" xml:space="preserve">
<style type="text/css">
	.st0{fill:#03598C;}
	.st1{display:none;fill:none;stroke:#FF0000;}
	.st2{fill:none;}
	.st3{fill:#1D1D1B;}
	.st4{font-family:'Montserrat-Bold';}
	.st5{font-size:17px;}
	.st6{opacity:0.5;}
	.st7{fill:#FFFDFC;}
	.st8{font-family:'ArialMT';}
	.st9{font-size:10.1075px;}
	.st10{clip-path:url(#SVGID_3_);}
	.st11{display:none;clip-path:url(#SVGID_4_);fill:none;}
	.st12{opacity:0;}
	.st13{clip-path:url(#SVGID_8_);}
	.st14{fill:#EEEEEE;}
	.st15{fill:none;stroke:#EEEEEE;stroke-width:0.7113;stroke-linecap:square;}
	.st16{fill:#FFFFFF;}
	.st17{font-size:12px;}
	.st18{font-size:11px;}
	.st19{clip-path:url(#SVGID_12_);}
	.st20{opacity:0.7;}
	.st21{clip-path:url(#SVGID_16_);}
	.st22{fill:#403427;}
	.st23{clip-path:url(#SVGID_18_);}
	.st24{fill:#FFFFFF;fill-opacity:0.7;}
	.st25{font-size:14px;}
</style>
<g id="Capa_2">
	<rect x="-8" y="-39" class="st0" width="499" height="942"/>
</g>
<g id="Capa_1">
	<rect x="-310.5" y="123.5" class="st1" width="1020" height="597"/>
	<g id="stack-labels">
	</g>
	<rect x="28.4" y="74.5" class="st2" width="368.2" height="42.7"/>
	<text transform="matrix(1 0 0 1 28.4097 87.1439)"><tspan x="0" y="0" class="st3 st4 st5">Volumen exportaciones Araña Pollito</tspan><tspan x="0" y="20.4" class="st3 st4 st5">(desde 2012)</tspan></text>
	<rect x="43.5" y="590.6" class="st2" width="273.5" height="59.4"/>
	<text transform="matrix(1 0 0 1 43.459 597.8477)" class="st6"><tspan x="0" y="0" class="st7 st8 st9">Fuente: ODEPA (2021) Oficina de estudios y políticas </tspan><tspan x="0" y="12.1" class="st7 st8 st9">agrarias: Estadísticas de exportación Araña pollito </tspan><tspan x="0" y="24.3" class="st7 st8 st9">(Migalomorfas, suborden Araneae) Código SACH 01069020. </tspan><tspan x="0" y="36.4" class="st7 st8 st9">Período anual desde 1998 hasta 2021.</tspan></text>
	<g>
		<defs>
			<polygon id="SVGID_1_" points="28.3,223.6 28.9,223.6 28.3,224.2 			"/>
		</defs>
		<defs>
			<polygon id="SVGID_2_" points="26.9,222.3 26.3,222.3 26.9,221.6 			"/>
		</defs>
		<clipPath id="SVGID_3_">
			<use xlink:href="#SVGID_1_"  style="overflow:visible;"/>
		</clipPath>
		<clipPath id="SVGID_4_" class="st10">
			<use xlink:href="#SVGID_2_"  style="overflow:visible;"/>
		</clipPath>
		<path class="st11" d="M26.9,221.6"/>
	</g>
	<g>
		<rect x="49.1" y="220.5" class="st2" width="340" height="292.8"/>
	</g>
	<g class="st12">
		<rect x="49.1" y="220.5" width="340" height="292.8"/>
	</g>
	<g>
		<defs>
			<rect id="SVGID_5_" x="49.1" y="220.5" width="340" height="292.8"/>
		</defs>
		<clipPath id="SVGID_6_">
			<use xlink:href="#SVGID_5_"  style="overflow:visible;"/>
		</clipPath>
	</g>
	<g>
		<defs>
			<rect id="SVGID_7_" x="48.8" y="220" width="340.7" height="293.9"/>
		</defs>
		<clipPath id="SVGID_8_">
			<use xlink:href="#SVGID_7_"  style="overflow:visible;"/>
		</clipPath>
		<g class="st13">
			<g>
				<g>
					<rect x="49.1" y="513.1" class="st14" width="340" height="0.5"/>
				</g>
				<g>
					<rect x="49.1" y="488.7" class="st14" width="340" height="0.5"/>
				</g>
				<g>
					<rect x="49.1" y="464.3" class="st14" width="340" height="0.5"/>
				</g>
				<g>
					<rect x="49.1" y="439.9" class="st14" width="340" height="0.5"/>
				</g>
				<g>
					<rect x="49.1" y="415.5" class="st14" width="340" height="0.5"/>
				</g>
				<g>
					<rect x="49.1" y="391.1" class="st14" width="340" height="0.5"/>
				</g>
				<g>
					<rect x="49.1" y="366.7" class="st14" width="340" height="0.5"/>
				</g>
				<g>
					<rect x="49.1" y="342.3" class="st14" width="340" height="0.5"/>
				</g>
				<g>
					<rect x="49.1" y="317.9" class="st14" width="340" height="0.5"/>
				</g>
				<g>
					<rect x="49.1" y="293.5" class="st14" width="340" height="0.5"/>
				</g>
				<g>
					<rect x="49.1" y="269.1" class="st14" width="340" height="0.5"/>
				</g>
				<g>
					<rect x="49.1" y="244.7" class="st14" width="340" height="0.5"/>
				</g>
				<g>
					<rect x="49.1" y="220.3" class="st14" width="340" height="0.5"/>
				</g>
			</g>
		</g>
	</g>
	<g>
		<line class="st15" x1="49.1" y1="513.4" x2="389.1" y2="513.4"/>
	</g>
	<g>
		<rect x="388.9" y="513.4" class="st14" width="0.3" height="3.7"/>
	</g>
	<text transform="matrix(0.7071 -0.7071 0.7071 0.7071 379.3781 550.4688)" class="st16 st8 st17">2016</text>
	<g>
		<rect x="304" y="513.4" class="st14" width="0.3" height="3.7"/>
	</g>
	<text transform="matrix(0.7071 -0.7071 0.7071 0.7071 296.2841 550.4684)" class="st16 st8 st17">2015</text>
	<g>
		<rect x="219" y="513.4" class="st14" width="0.3" height="3.7"/>
	</g>
	<text transform="matrix(0.7071 -0.7071 0.7071 0.7071 212.1902 550.468)" class="st16 st8 st17">2014</text>
	<g>
		<rect x="134.1" y="513.4" class="st14" width="0.3" height="3.7"/>
	</g>
	<text transform="matrix(0.7071 -0.7071 0.7071 0.7071 125.0976 550.469)" class="st16 st8 st17">2013</text>
	<g>
		<rect x="48.9" y="513.4" class="st14" width="0.3" height="3.7"/>
	</g>
	<text transform="matrix(0.7071 -0.7071 0.7071 0.7071 43.5902 550.4691)" class="st16 st8 st17">2012</text>
	<g>
		<rect x="48.9" y="220.3" class="st14" width="0.3" height="293.4"/>
	</g>
	<g>
		<rect x="46.7" y="513.1" class="st14" width="2.4" height="0.5"/>
	</g>
	<text transform="matrix(1 0 0 1 32.9067 517.4443)" class="st16 st8 st18">0</text>
	<g>
		<rect x="46.7" y="220.3" class="st14" width="2.4" height="0.5"/>
	</g>
	<text transform="matrix(1 0 0 1 7.3911 224.7334)" class="st16 st8 st18">60.000</text>
	<g>
		<rect x="46.7" y="269.1" class="st14" width="2.4" height="0.5"/>
	</g>
	<text transform="matrix(1 0 0 1 7.3911 274.3506)" class="st16 st8 st18">50.000</text>
	<g>
		<rect x="46.7" y="317.9" class="st14" width="2.4" height="0.5"/>
	</g>
	<text transform="matrix(1 0 0 1 7.3911 323.9668)" class="st16 st8 st18">40.000</text>
	<g>
		<rect x="46.7" y="366.7" class="st14" width="2.4" height="0.5"/>
	</g>
	<text transform="matrix(1 0 0 1 7.3911 373.582)" class="st16 st8 st18">30.000</text>
	<g>
		<rect x="46.7" y="415.5" class="st14" width="2.4" height="0.5"/>
	</g>
	<text transform="matrix(1 0 0 1 7.3911 423.1992)" class="st16 st8 st18">20.000</text>
	<g>
		<rect x="46.7" y="464.3" class="st14" width="2.4" height="0.5"/>
	</g>
	<text transform="matrix(1 0 0 1 7.3911 472.8164)" class="st16 st8 st18">10.000</text>
	<g>
		<rect x="46.7" y="488.7" class="st14" width="2.4" height="0.5"/>
	</g>
	<text transform="matrix(1 0 0 1 11.1743 497.625)" class="st16 st8 st18">5.000</text>
	<g>
		<rect x="46.7" y="244.7" class="st14" width="2.4" height="0.5"/>
	</g>
	<text transform="matrix(1 0 0 1 7.3911 249.54)" class="st16 st8 st18">55.000</text>
	<g>
		<rect x="46.7" y="293.5" class="st14" width="2.4" height="0.5"/>
	</g>
	<text transform="matrix(1 0 0 1 7.3911 299.1572)" class="st16 st8 st18">45.000</text>
	<g>
		<rect x="46.7" y="342.3" class="st14" width="2.4" height="0.5"/>
	</g>
	<text transform="matrix(1 0 0 1 7.3911 348.7744)" class="st16 st8 st18">35.000</text>
	<g>
		<path class="st16" d="M389.2,515.1H48.9V220.2h340.3V515.1z M49.3,514.6h339.6V220.8H49.3V514.6z"/>
	</g>
	<g>
		<rect x="46.7" y="391.1" class="st14" width="2.4" height="0.5"/>
	</g>
	<text transform="matrix(1 0 0 1 7.3911 398.3916)" class="st16 st8 st18">25.000</text>
	<g>
		<rect x="46.7" y="439.9" class="st14" width="2.4" height="0.5"/>
	</g>
	<text transform="matrix(1 0 0 1 7.3911 448.0088)" class="st16 st8 st18">15.000</text>
	<g>
		<defs>
			<rect id="SVGID_9_" x="49.1" y="220.5" width="340" height="292.8"/>
		</defs>
		<clipPath id="SVGID_10_">
			<use xlink:href="#SVGID_9_"  style="overflow:visible;"/>
		</clipPath>
	</g>
	<g transform="translate(0, 0)">
		<g>
			<defs>
				<rect id="SVGID_11_" x="37.6" y="211.4" width="355.1" height="321"/>
			</defs>
			<clipPath id="SVGID_12_">
				<use xlink:href="#SVGID_11_"  style="overflow:visible;"/>
			</clipPath>
			<g class="st19">
				<polygon class="st14" points="49.1,217 49.1,217 49.1,217 				"/>
			</g>
		</g>
		<g>
			<defs>
				<rect id="SVGID_13_" x="37.6" y="211.4" width="355.1" height="321"/>
			</defs>
			<clipPath id="SVGID_14_">
				<use xlink:href="#SVGID_13_"  style="overflow:visible;"/>
			</clipPath>
		</g>
	</g>
	<g class="st20">
		<path class="st16" d="M49.1,513.4c28.4,0,56.8,0,85.2,0c28.3,0,56.6,0,84.9,0s56.6,0,84.9,0s56.6,0,84.9,0v-88.8
			c-28.3-1.3-56.6-2.7-84.9-8.1c-28.3-5.4-56.6-181.7-84.9-181.7s-56.6,156.8-84.9,156.8c-28.4,0-56.8-7.7-85.2-15.4V513.4z"/>
	</g>
	<g id="data-points">
		<g>
			<defs>
				<rect id="SVGID_15_" x="37.6" y="211.4" width="355.1" height="321"/>
			</defs>
			<clipPath id="SVGID_16_">
				<use xlink:href="#SVGID_15_"  style="overflow:visible;"/>
			</clipPath>
			<g transform="translate(0,0)" class="st21">
				<g id="point-0-0">
					<path class="st22" d="M47.9,376.3c0-1,0.5-1.9,1.2-1.9s1.2,0.8,1.2,1.9c0,1-0.5,1.9-1.2,1.9S47.9,377.3,47.9,376.3z"/>
				</g>
				<g id="point-0-1">
					<path class="st22" d="M133.1,391.7c0-1,0.5-1.9,1.2-1.9c0.7,0,1.2,0.8,1.2,1.9c0,1-0.5,1.9-1.2,1.9
						C133.6,393.5,133.1,392.7,133.1,391.7z"/>
				</g>
				<g id="point-0-2">
					<path class="st22" d="M218,234.8c0-1,0.5-1.9,1.2-1.9s1.2,0.8,1.2,1.9c0,1-0.5,1.9-1.2,1.9S218,235.9,218,234.8z"/>
				</g>
				<g id="point-0-3">
					<path class="st22" d="M302.9,416.5c0-1,0.5-1.9,1.2-1.9c0.7,0,1.2,0.8,1.2,1.9l0,0c0,1-0.5,1.9-1.2,1.9
						C303.5,418.4,302.9,417.6,302.9,416.5z"/>
				</g>
				<g id="point-0-4">
					<path class="st22" d="M387.9,424.6c0-1,0.5-1.9,1.2-1.9c0.7,0,1.2,0.8,1.2,1.9c0,1-0.5,1.9-1.2,1.9
						C388.4,426.5,387.9,425.6,387.9,424.6z"/>
				</g>
			</g>
		</g>
	</g>
	<g id="data-point-labels">
		<g>
			<defs>
				<rect id="SVGID_17_" x="37.6" y="211.4" width="355.1" height="321"/>
			</defs>
			<clipPath id="SVGID_18_">
				<use xlink:href="#SVGID_17_"  style="overflow:visible;"/>
			</clipPath>
			<g transform="translate(0,0)" class="st23">
			</g>
		</g>
	</g>
	<rect x="41.1" y="162" class="st24" width="18.4" height="18.4"/>
	<rect x="69.9" y="166.1" class="st2" width="134.2" height="12.7"/>
	<text transform="matrix(1 0 0 1 69.9443 176.1577)" class="st16 st8 st25">Volumen Exportado</text>
	<g>
		<path class="st22" d="M389.1,425.1c-27.8-1.3-56.6-2.7-85-8.1c-14.1-2.7-28.3-47.6-42.1-91.1c-14.1-44.5-28.7-90.6-42.8-90.6
			c-14,0-28.3,39.7-42.2,78.1c-14,38.7-28.4,78.7-42.8,78.7c-28.4,0-57.3-7.8-85.2-15.4l0.1-1c27.9,7.6,56.7,15.4,85.1,15.4
			c14,0,28.3-39.7,42.2-78.1c14-38.7,28.4-78.7,42.8-78.7c14.6,0,29.3,46.4,43.4,91.2c13.7,43.2,27.8,87.9,41.5,90.5
			c28.3,5.4,57.1,6.7,84.9,8.1L389.1,425.1z"/>
	</g>
</g>
</svg>
